SplineFontDB: 3.2
FontName: CyanDaydream
FullName: CyanDaydream
FamilyName: CyanDaydream
Weight: Regular
Copyright: No Copyright (cC) 2020 Met Sender / Mehmet PINARCI
UComments: "This font / typeset creation started with dreamy style words in mind. And here it is. Have fun. "
Version: 001.000
ItalicAngle: 0
UnderlinePosition: -102.4
UnderlineWidth: 51.2
Ascent: 819
Descent: 205
InvalidEm: 0
LayerCount: 2
Layer: 0 0 "Back" 1
Layer: 1 0 "Fore" 0
XUID: [1021 66 1585159542 6054]
StyleMap: 0x0000
FSType: 0
OS2Version: 0
OS2_WeightWidthSlopeOnly: 0
OS2_UseTypoMetrics: 1
CreationTime: 1582518360
ModificationTime: 1582573879
PfmFamily: 17
TTFWeight: 400
TTFWidth: 5
LineGap: 92
VLineGap: 92
OS2TypoAscent: 0
OS2TypoAOffset: 1
OS2TypoDescent: 0
OS2TypoDOffset: 1
OS2TypoLinegap: 92
OS2WinAscent: 0
OS2WinAOffset: 1
OS2WinDescent: 0
OS2WinDOffset: 1
HheadAscent: 0
HheadAOffset: 1
HheadDescent: 0
HheadDOffset: 1
OS2Vendor: 'PfEd'
MarkAttachClasses: 1
DEI: 91125
LangName: 1033
Encoding: ISO8859-1
UnicodeInterp: none
NameList: AGL For New Fonts
DisplaySize: -48
AntiAlias: 1
FitToEm: 0
WinInfo: 0 38 14
BeginPrivate: 0
EndPrivate
Grid
-1024 313.34375 m 0
 2048 313.34375 l 1024
  Spiro
    -1024 313.344 {
    2048 313.344 o
    0 0 z
  EndSpiro
  Named: "XheightTOP"
875.51953125 1331.20019531 m 0
 875.51953125 -716.799804688 l 1024
  Spiro
    875.52 1331.2 {
    875.52 -716.8 o
    0 0 z
  EndSpiro
  Named: "Starboard"
-1024 884.736328125 m 0
 2048 884.736328125 l 1024
  Spiro
    -1024 884.736 {
    2048 884.736 o
    0 0 z
  EndSpiro
  Named: "AboveApex"
58.3681640625 1331.20019531 m 0
 58.3681640625 -716.799804688 l 1024
  Spiro
    58.368 1331.2 {
    58.368 -716.8 o
    0 0 z
  EndSpiro
  Named: "Portside"
EndSplineSet
TeXData: 1 0 1049 373293 186645 124431 797588 1048576 124431 783286 444596 497025 792723 393216 433062 380633 303038 157286 324010 404750 52429 2506097 1059062 262144
BeginChars: 256 95

StartChar: A
Encoding: 65 65 0
Width: 932
VWidth: 0
Flags: HW
LayerCount: 2
Fore
SplineSet
401 15 m 5
 337 -63 214 -123 110 -123 c 4
 63 -123 72 -39 72 -6 c 4
 72 87 204 50 204 150 c 4
 204 248 108 296 108 400 c 4
 108 446 237 405 237 466 c 4
 237 501 215 527 215 562 c 4
 215 663 763 829 839 829 c 4
 845 829 844 827 844 823 c 4
 844 718 718 651 718 526 c 4
 718 446 825 472 825 412 c 4
 825 328 608 348 608 258 c 4
 608 206 836 144 836 -33 c 4
 836 -96 721 -105 685 -105 c 4
 574 -105 503 118 503 222 c 4
 503 322 632 345 632 451 c 4
 632 475 531 463 514 463 c 4
 466 463 349 461 349 385 c 4
 349 336 426 350 426 316 c 4
 426 259 262 281 262 213 c 4
 262 139 399 161 399 93 c 4
 399 81 l 4
 401 15 l 5
EndSplineSet
Validated: 33
EndChar

StartChar: B
Encoding: 66 66 1
Width: 1024
VWidth: 0
Flags: HW
LayerCount: 2
Fore
SplineSet
171 610 m 4
 179 590 l 4
 212 559 321 512 321 455 c 4
 321 398 259 385 259 336 c 4
 259 198 515 187 515 182 c 4
 515 167 471 121 458 121 c 4
 453 121 394 117 394 137 c 4
 394 156 417 154 433 154 c 4
 486 154 544 150 599 150 c 4
 672 150 714 174 714 254 c 4
 714 309 692 328 638 328 c 4
 578 328 527 293 472 293 c 4
 421 293 361 313 361 371 c 4
 361 409 372 434 413 434 c 4
 486 434 533 399 607 399 c 4
 651 399 738 428 738 485 c 4
 738 581 661 612 579 612 c 4
 494 612 426 569 345 569 c 4
 299 569 202 598 202 657 c 4
 202 726 394 748 443 748 c 4
 567 748 835 741 835 555 c 4
 835 442 691 390 691 346 c 4
 691 323 802 332 802 291 c 4
 802 240 722 238 722 190 c 4
 722 145 859 176 859 123 c 4
 859 -17 513 4 423 4 c 4
 353 4 163 -24 163 80 c 4
 163 156 296 162 296 197 c 4
 296 231 169 209 169 274 c 4
 169 325 226 352 226 399 c 4
 226 489 110 456 110 547 c 4
 110 584 153 580 171 610 c 4
EndSplineSet
Validated: 37
EndChar

StartChar: C
Encoding: 67 67 2
Width: 784
VWidth: 0
Flags: HW
LayerCount: 2
Fore
SplineSet
60 489 m 0
 91.2122676257 564.82739841 119 719 226 719 c 0
 272 719 330 676 359 676 c 0
 393 676 437 694 468 694 c 0
 534 694 602 621 605 621 c 0
 616 621 717 662 751 616 c 24
 780 576 700 504 689 506 c 0
 663 511 655 514 628 514 c 0
 601 514 608 487 577 487 c 0
 533 487 537 545 493 545 c 0
 472 545 474 506 458 506 c 0
 406 506 380 573 343 573 c 0
 343 573 271 574 271 567 c 0
 271 536 308 518 308 487 c 0
 308 480 305 483 300 483 c 0
 287 483 250 496 237 496 c 0
 204 496 185 504 185 469 c 0
 185 452 77 237 208 184 c 0
 298 147 330 236 392 268 c 0
 471 308 481 188 525 188 c 0
 557 188 590 221 622 221 c 0
 622 221 693 229 693 213 c 0
 693 80 569 113 476 113 c 0
 389 113 368 -4 286 -4 c 0
 276 -4 194 -9 194 8 c 0
 194 29 133 65 133 81 c 0
 133 88 28 125 28 203 c 0
 28 292 111.521758046 363.288017623 118 436 c 0
 119.692796608 455 43.9467202763 450 60 489 c 0
EndSplineSet
Validated: 524321
EndChar

StartChar: D
Encoding: 68 68 3
Width: 808
VWidth: 0
Flags: HW
LayerCount: 2
Fore
SplineSet
117 730 m 0
 128 743 143 751 143 751 c 0
 205 782 241 747 244 737 c 0
 251 715 187 688 187 664 c 0
 187 502 306 305 306 133 c 0
 306 123 303 102 288 102 c 0
 264 102 245 109 224 109 c 0
 204 109 157 108 157 74 c 0
 157 41 214 14 243 14 c 0
 297 14 339 68 380 68 c 0
 450 68 599 33 599 137 c 0
 599 265 443 258 443 369 c 0
 443 415 507 449 507 485 c 0
 507 608 222 570 222 649 c 0
 222 681 253 721 282 721 c 0
 341 721 667 725 667 629 c 0
 667 593 607 581 607 553 c 0
 607 524 658 525 658 494 c 0
 658 460 609 434 609 406 c 0
 609 306 765 222 765 125 c 0
 765 -74 486 -74 351 -74 c 0
 254 -74 52 -101 52 51 c 0
 52 110 85 165 85 221 c 0
 85 252 50 274 50 307 c 0
 50 370 124 409 124 461 c 0
 124 516 72 560 77 608 c 0
 81 650 85 692 117 730 c 0
EndSplineSet
Validated: 33
EndChar

StartChar: E
Encoding: 69 69 4
Width: 866
VWidth: 0
Flags: HW
LayerCount: 2
Fore
SplineSet
136 672 m 0
 187 672 226 657 278 657 c 0
 342 657 355 745 433 745 c 0
 467 745 773 628 773 625 c 0
 773 605 775 573 753 555 c 24
 697 508 649 482 585 469 c 0
 514 454 536 573 476 573 c 0
 431 573 413 520 382 520 c 0
 362 520 341 539 325 539 c 0
 309 539 271 543 271 526 c 0
 271 493 267 354 318 354 c 0
 362 354 348 469 396 469 c 0
 498 469 435 340 501 340 c 0
 522 340 543 350 566 350 c 0
 585 350 595 353 595 330 c 0
 595 260 556 252 493 252 c 0
 463 252 333 302 333 324 c 0
 333 303 380 295 380 268 c 0
 380 253 325 267 325 262 c 0
 325 221 370 191 370 147 c 0
 370 135 369 135 359 135 c 0
 338 135 314 145 296 145 c 0
 285 145 278 129 278 119 c 0
 278 89 305 63 335 63 c 0
 479 63 582 180 720 180 c 0
 725 180 802 189 802 160 c 0
 802 126 734 -4 691 -4 c 0
 655 -4 616 2 583 2 c 0
 488 2 461 -106 376 -106 c 0
 296 -106 108 -42 108 51 c 0
 108 150 232 194 232 246 c 0
 232 280 183 285 183 315 c 0
 183 347 216 371 216 399 c 0
 216 508 69 489 69 592 c 0
 69 634 88 672 136 672 c 0
EndSplineSet
Validated: 33
EndChar

StartChar: F
Encoding: 70 70 5
Width: 784
VWidth: 0
Flags: HW
LayerCount: 2
Fore
SplineSet
755 623 m 1
 677 553 l 0
 671 550 506 528 505 528 c 0
 430 528 402 610 341 610 c 0
 315 610 241 602 241 559 c 0
 241 539 251 446 273 446 c 0
 302 446 320 477 357 477 c 0
 411 477 425 393 484 393 c 0
 502 393 530 424 544 424 c 0
 579 424 679 379 679 379 c 0
 679 341 662 270 609 270 c 0
 585 270 308 305 308 330 c 0
 308 296 339 273 339 242 c 0
 339 214 280 223 280 180 c 0
 280 78 400 39 400 -51 c 0
 400 -114 330 -106 284 -106 c 0
 259 -106 146 -107 146 -59 c 0
 146 -2 191 43 191 96 c 0
 191 131 120 140 120 190 c 0
 120 268 196 320 196 395 c 0
 196 459 85 480 85 543 c 0
 85 606 253 748 337 748 c 0
 416 748 465 674 534 674 c 0
 569 674 607 705 644 705 c 0
 705 705 731 646 755 623 c 1
EndSplineSet
Validated: 33
EndChar

StartChar: G
Encoding: 71 71 6
Width: 694
VWidth: 0
Flags: HW
LayerCount: 2
Fore
SplineSet
192 654 m 0
 192 742 253 779 322 779 c 0
 378 779 626 650 626 591 c 0
 626 536 568 401 502 401 c 0
 478 401 488 396 476 406 c 1
 506 465 l 0
 514 495 511 446 511 486 c 0
 511 503 503 534 483 534 c 0
 422 534 431 502 390 502 c 0
 328 502 368 556 292 556 c 0
 265 556 201 559 201 513 c 0
 201 462 220 421 220 371 c 0
 220 316 164 338 164 275 c 0
 164 146 234 70 348 70 c 0
 400 70 565 61 565 157 c 0
 565 157 563 179 554 179 c 0
 536 179 530 151 509 151 c 0
 496 151 468 164 456 164 c 0
 414 164 393 112 359 112 c 0
 308 112 231 129 231 210 c 0
 231 248 236 343 288 343 c 0
 360 343 368 231 439 231 c 0
 480 231 497 282 535 282 c 0
 598 282 638 229 638 155 c 0
 638 141 642 66 623 66 c 0
 596 66 590 68 563 68 c 0
 522 68 519 -43 459 -43 c 0
 352 -43 27 -33 27 164 c 0
 27 217 79 262 79 301 c 0
 79 338 32 370 32 419 c 0
 32 573 192 563 192 654 c 0
EndSplineSet
Validated: 37
EndChar

StartChar: H
Encoding: 72 72 7
Width: 662
VWidth: 0
Flags: HW
LayerCount: 2
Fore
SplineSet
186 705 m 0
 196 698 298 696 296 678 c 0
 293 651 247 649 247 635 c 0
 247 596 292 577 292 539 c 0
 292 500 208 543 208 492 c 0
 208 458 251 399 292 399 c 0
 292 399 519 466 519 488 c 0
 519 564 416 607 416 674 c 0
 416 732 452 792 522 792 c 0
 562 792 632 779 632 734 c 0
 632 671 519 660 519 601 c 0
 519 537 621 521 621 446 c 0
 621 372 542 315 542 239 c 0
 542 183 591 139 591 80 c 0
 591 47 570 22 537 22 c 0
 499 22 404 48 404 97 c 0
 404 172 456 230 456 308 c 0
 456 337 404 343 380 343 c 0
 380 343 263 347 263 337 c 0
 263 323 269 309 269 295 c 0
 269 260 211 265 211 231 c 0
 211 152 337 113 337 28 c 0
 337 -8 214 -9 190 -9 c 0
 75 -9 40 26 40 122 c 0
 40 205 136 305 136 384 c 0
 136 427 67 427 67 475 c 0
 67 517 112 531 112 570 c 0
 112 595 78 609 78 643 c 0
 78 678 117 705 152 705 c 0
 186 705 l 0
EndSplineSet
Validated: 33
EndChar

StartChar: I
Encoding: 73 73 8
Width: 774
VWidth: 0
Flags: HW
HStem: -20 178<559 635> -16 82<231 332> 6 57<391 513> 502 197<533 653> 575 82<428 493> 606 113<189 310>
VStem: 249 178<507 575> 294 180<260 379> 321 115<373 446> 343 45<75 181>
LayerCount: 2
Fore
SplineSet
67 653 m 4x46
 67 662 259 719 280 719 c 0x46
 341 719 376 657 433 657 c 0x0a
 481 657 532 698 583 698 c 0
 649 698 699 672 699 608 c 0
 699 544 644 502 583 502 c 0x12
 531 502 496 575 439 575 c 0
 422 575 427 545 427 537 c 0x0a
 427 506 486 493 486 477 c 0
 486 458 435 445 435 416 c 0x0880
 435 383 474 371 474 334 c 0x09
 474 258 388 188 388 96 c 0
 388 61 439 63 460 63 c 0x2840
 534 63 543 158 607 158 c 0
 657 158 654 117 654 84 c 0
 654 13 642 -20 566 -20 c 0x8040
 514 -20 466 6 411 6 c 0x2040
 374 6 330 -16 290 -16 c 0
 235 -16 65 38 65 104 c 0
 65 132 129 135 148 135 c 0
 193 135 229 66 290 66 c 0
 340 66 343 109 343 152 c 0x4040
 343 205 294 244 294 299 c 0x41
 294 351 321 391 321 442 c 0x4080
 321 485 249 475 249 520 c 0
 249 537 251 552 251 569 c 0
 251 595 215 606 196 606 c 0
 172 606 160 593 142 586 c 0
 105 549 l 1
 82 579 67 614 67 653 c 4x46
EndSplineSet
Validated: 33
EndChar

StartChar: i
Encoding: 105 105 9
Width: 512
VWidth: 0
Flags: MW
LayerCount: 2
Fore
SplineSet
183 539 m 0
 183 593 265 583 265 635 c 0
 265 677 222 691 222 733 c 0
 222 759 244 770 269 770 c 0
 275 770 l 1
 351 770 l 0
 378 725 388 732 388 668 c 0
 388 573 284 520 284 461 c 0
 284 386 355 331 355 258 c 0
 355 214 306 209 306 164 c 0
 306 102 366 51 366 -10 c 0
 366 -44 314 -35 290 -35 c 0
 183 -35 103 17 103 131 c 0
 103 251 249 320 249 393 c 0
 249 447 183 483 183 539 c 0
EndSplineSet
Validated: 33
EndChar

StartChar: J
Encoding: 74 74 10
Width: 675
VWidth: 0
Flags: HW
LayerCount: 2
Fore
SplineSet
104 691 m 0
 104 706 158 697 164 697 c 0
 228 697 271 738 336 738 c 0
 395 738 430 705 488 705 c 0
 535 705 562 749 615 749 c 0
 651 749 649 706 649 674 c 0
 649 606 604 549 604 484 c 0
 604 454 556 380 556 350 c 0
 556 307 593 256 567 214 c 1
 592 123 503 93 451 55 c 1
 376 109 314 3 264 3 c 0
 152 3 28 61 28 199 c 0
 28 238 27 317 78 317 c 0
 81 317 129 350 129 340 c 0
 215 226 l 0
 128 207 179 90 311 119 c 0
 485 157 487 264 487 264 c 0
 487 296 485 327 485 359 c 0
 485 405 523 501 523 558 c 0
 523 599 499 602 467 602 c 0
 444 602 435 579 411 579 c 0
 337 579 346 674 261 674 c 0
 244 674 223 656 199 649 c 24
 179 643 170 641 149 641 c 0
 124 641 104 662 104 691 c 0
EndSplineSet
Validated: 33
EndChar

StartChar: K
Encoding: 75 75 11
Width: 708
VWidth: 0
Flags: HW
LayerCount: 2
Fore
SplineSet
75 708 m 0
 75 736 102 782 131 782 c 0
 138 782 l 1
 240 760 l 0
 257 726 286 712 286 667 c 0
 286 621 240 596 240 551 c 0
 240 521 271 514 309 514 c 0
 395 616 l 0
 395 714 447 791 564 791 c 0
 582 791 623 791 623 760 c 0
 623 615 257 508 289 410 c 0
 289 410 306 372 320 372 c 0
 457 372 369 211 496 211 c 0
 533 211 577 239 607 239 c 0
 649 239 659 227 659 185 c 0
 659 142 649 19 584 19 c 0
 535 19 386 266 304 266 c 0
 177 335 l 0
 177 275 240 235 240 176 c 0
 240 135 179 121 179 107 c 0
 179 85 193 65 193 41 c 0
 193 26 185 2 167 2 c 0
 113 2 47 -5 47 69 c 0
 47 120 73 170 73 215 c 0
 73 233 59 245 59 264 c 0
 59 321 134 372 134 397 c 0
 134 444 47 452 47 501 c 0
 47 563 138 554 138 603 c 0
 138 646 75 655 75 708 c 0
EndSplineSet
Validated: 33
EndChar

StartChar: L
Encoding: 76 76 12
Width: 684
VWidth: 0
Flags: HW
LayerCount: 2
Fore
SplineSet
214 752 m 0
 217 733 274 631 274 613 c 0
 274 579 238 570 238 538 c 0
 238 477 259 452 259 397 c 0
 259 316 144 342 144 272 c 0
 144 265 140 170 155 170 c 0
 191 170 218 223 259 223 c 0
 292 223 285 184 321 184 c 0
 354 184 378 258 411 258 c 0
 477 258 469 141 534 141 c 0
 576 141 605 160 646 160 c 0
 646 160 663 164 663 154 c 0
 663 98 570 51 523 51 c 0
 449 51 403 94 331 94 c 0
 267 94 212 59 151 59 c 0
 95 59 58 53 58 113 c 0
 58 194 132 275 132 338 c 0
 132 393 58 425 58 473 c 0
 58 525 132 536 132 588 c 0
 132 610 83 658 83 674 c 0
 83 699 161 752 198 752 c 0
 214 752 l 0
EndSplineSet
Validated: 33
EndChar

StartChar: M
Encoding: 77 77 13
Width: 759
VWidth: 0
Flags: HW
LayerCount: 2
Fore
SplineSet
62 39 m 24
 13 39 24 129 24 160 c 0
 24 183 52 191 52 221 c 0
 52 273 32 319 32 371 c 0
 32 429 97 438 97 498 c 0
 97 554 73 608 73 666 c 0
 73 705 133 715 155 715 c 0
 271 530 l 0
 271 496 249 471 249 434 c 0
 394 276 l 0
 394 276 480 463 480 477 c 0
 480 531 437 561 437 614 c 0
 437 681 620 689 620 739 c 0
 620 696 597 661 597 616 c 0
 597 532 728 573 728 518 c 0
 728 449 622 427 622 352 c 0
 622 303 685 291 685 236 c 0
 685 144 668 18 572 18 c 0
 549 18 544 44 544 63 c 0
 544 107 583 136 583 178 c 0
 583 220 517 233 517 264 c 0
 517 303 546 338 546 379 c 0
 546 345 378 182 333 182 c 0
 320 182 245 422 153 422 c 0
 127 422 130 350 130 334 c 0
 130 304 165 311 165 289 c 0
 165 264 126 259 126 229 c 0
 126 185 189 208 189 160 c 0
 189 92 131 39 62 39 c 24
EndSplineSet
Validated: 33
EndChar

StartChar: N
Encoding: 78 78 14
Width: 747
VWidth: 0
Flags: HW
LayerCount: 2
Fore
SplineSet
91 715 m 0
 197 715 340 213 468 213 c 0
 535 213 531 506 531 537 c 0
 531 594 611 619 611 686 c 0
 611 709 607 733 607 756 c 0
 607 783 645 793 667 793 c 0
 696 793 699 763 699 743 c 0
 699 712 679 679 679 645 c 0
 679 622 701 616 701 596 c 0
 701 515 630 452 630 367 c 0
 630 325 652 295 652 256 c 0
 652 188 564 181 564 113 c 0
 564 79 585 48 585 16 c 0
 585 16 577 16 572 16 c 0
 355 16 288 426 175 426 c 0
 159 426 163 406 163 393 c 0
 163 293 316 153 294 80 c 0
 278 27 167 39 136 16 c 0
 136 23 l 0
 75 58 60 144 60 209 c 0
 60 235 95 253 95 281 c 0
 95 352 24 394 24 471 c 0
 24 516 33 715 91 715 c 0
EndSplineSet
Validated: 33
EndChar

StartChar: O
Encoding: 79 79 15
Width: 622
VWidth: 0
Flags: HW
HStem: -8 121<218 441> 639 115<231 348>
VStem: 48 129<350 445> 79 80<139 252> 89 145<254 334> 97 158<523 608> 486 94<381 492>
LayerCount: 2
Fore
SplineSet
407 158 m 1xd2
 433 177 456 212 456 248 c 0
 456 272 427 291 427 317 c 0
 427 355 486 382 486 432 c 0
 486 500 354 639 296 639 c 0
 270 639 255 597 255 578 c 0xc6
 255 559 271 542 271 522 c 0
 271 509 177 456 177 381 c 0xe2
 177 342 234 348 234 311 c 0xca
 234 289 159 256 159 201 c 0
 159 130 203 113 265 113 c 0
 288 113 309 147 337 147 c 0
 356 147 349 139 361 129 c 0
 407 158 l 1xd2
351 737 m 1
 456 725 l 0
 493 672 581 548 581 467 c 0
 581 358 506 -8 376 -8 c 0
 259 -8 79 23 79 174 c 0xd2
 79 207 89 238 89 270 c 0xca
 89 316 48 343 48 395 c 0xe2
 48 450 97 490 97 537 c 0
 97 605 195 754 267 754 c 0
 286 754 341 749 351 737 c 1
EndSplineSet
Validated: 1
EndChar

StartChar: P
Encoding: 80 80 16
Width: 651
VWidth: 0
Flags: HW
LayerCount: 2
Fore
SplineSet
218 455 m 24
 209 445 239 428 239 426 c 0
 239 406 319 326 341 326 c 0
 427 326 499 442 499 522 c 0
 499 546 472 545 460 545 c 0
 460 545 440 543 433 543 c 0
 399 543 408 635 347 635 c 0
 307 635 310 582 298 582 c 0
 275 582 261 584 239 584 c 0
 204 584 202 564 202 537 c 0
 202 498 280 514 280 469 c 0
 280 459 273 457 267 457 c 0
 229 457 231 469 218 455 c 24
263 745 m 1
 294 745 l 0
 305 754 304 770 325 770 c 0
 371 770 401 719 441 719 c 0
 462 719 494 727 513 727 c 0
 591 727 632 500 632 436 c 0
 632 357 435 223 361 223 c 0
 286 223 241 305 173 305 c 0
 164 305 163 289 163 283 c 0
 163 233 214 210 214 160 c 0
 214 145 202 128 202 119 c 0
 202 60 263 39 263 -16 c 0
 263 -22 264 -37 259 -37 c 0
 134 -37 77 52 77 158 c 0
 77 216 56 269 56 322 c 0
 56 366 83 402 83 444 c 0
 83 483 69 520 69 559 c 0
 69 576 199 750 212 750 c 0
 232 750 248 751 263 745 c 1
EndSplineSet
Validated: 33
EndChar

StartChar: Q
Encoding: 81 81 17
Width: 702
VWidth: 0
Flags: HW
LayerCount: 2
Fore
SplineSet
214 240 m 1
 216 236 l 0
 216 212 373 141 394 141 c 0
 403 141 333 232 337 236 c 0
 403 314 425 197 443 197 c 0
 518 197 427 254 427 311 c 0
 427 337 472 335 472 362 c 0
 472 385 464 402 464 424 c 0
 464 460 529 481 529 522 c 0
 529 551 502 569 472 569 c 0
 451 569 456 514 427 514 c 0
 418 514 411 522 411 535 c 0
 411 560 419 582 419 608 c 0
 419 626 367 666 347 666 c 0
 269 666 353 532 290 532 c 0
 276 532 265 551 253 551 c 0
 231 551 214 556 214 530 c 0
 214 486 280 487 280 430 c 0
 280 397 183 440 183 362 c 0
 183 323 255 336 255 293 c 0
 255 284 256 292 245 285 c 0
 189 279 l 0
 214 240 l 1
372 39 m 1
 365 30 336 33 331 33 c 0
 219 33 54 114 54 242 c 0
 54 262 83 286 83 313 c 0
 83 361 60 407 60 457 c 0
 60 563 198 768 327 768 c 0
 386 768 432 776 490 776 c 0
 582 776 658 670 658 588 c 0
 658 531 587 508 587 442 c 0
 587 423 624 404 624 383 c 0
 624 349 579 342 579 307 c 0
 579 286 605 274 605 252 c 0
 605 193 519 246 519 154 c 4
 519 107 648 82 648 -12 c 0
 648 -23 632 -29 622 -29 c 0
 533 -29 559 74 486 74 c 0
 468 74 469 90 458 90 c 0
 434 90 441 72 431 61 c 0
 372 39 l 1
EndSplineSet
Validated: 33
EndChar

StartChar: R
Encoding: 82 82 18
Width: 792
VWidth: 0
Flags: HW
LayerCount: 2
Fore
SplineSet
253 530 m 5
 255 526 l 0
 255 505 259 469 288 469 c 0
 308 469 l 0
 321 469 328 420 359 420 c 0
 381 420 380 444 398 444 c 0
 422 444 451 420 482 420 c 0
 524 420 521 485 521 508 c 0
 521 526 476 500 476 528 c 0
 476 551 499 566 499 590 c 0
 499 598 484 600 480 600 c 0
 456 600 443 573 421 573 c 0
 396 573 414 666 355 666 c 0
 320 666 342 600 286 600 c 0
 253 600 215 627 175 627 c 0
 158 627 165 598 165 588 c 0
 165 575 205 573 214 573 c 0
 220 573 237 578 247 578 c 0
 247 578 257 571 257 569 c 0
 257 550 198 565 198 532 c 0
 198 519 203 524 210 512 c 0
 253 530 l 5
138 33 m 0
 138 33 l 0
 115 33 95 46 95 66 c 0
 95 78 103 86 103 96 c 0
 103 139 50 158 50 201 c 0
 50 230 130 252 130 281 c 0
 130 322 91 354 91 401 c 0
 91 486 22 666 75 725 c 1
 114 768 197 643 318 722 c 1
 382 752 454 768 523 768 c 0
 616 768 701 583 701 504 c 0
 701 468 660 453 660 418 c 0
 660 397 677 393 677 375 c 0
 677 336 580 342 566 342 c 0
 533 342 519 348 486 348 c 0
 456 348 443 329 443 301 c 0
 443 276 443 262 470 262 c 0
 508 262 532 289 572 289 c 0
 601 289 738 94 738 33 c 0
 738 25 701 29 701 29 c 0
 493 29 400 395 314 395 c 0
 293 395 280 333 280 317 c 0
 280 291 318 295 318 268 c 0
 318 219 198 214 198 154 c 0
 198 100 339 131 325 37 c 0
 322 17 125 25 138 33 c 0
EndSplineSet
Validated: 37
EndChar

StartChar: S
Encoding: 83 83 19
Width: 772
VWidth: 0
Flags: HW
LayerCount: 2
Fore
SplineSet
310 678 m 4
 350 678 385 649 421 649 c 0
 442 649 452 692 490 692 c 0
 536 692 543 631 577 631 c 0
 599 631 613 637 636 637 c 0
 661 637 671 596 671 578 c 0
 671 540 623 451 583 451 c 0
 549 451 543 492 509 492 c 0
 500 492 484 477 472 477 c 0
 448 477 450 492 450 516 c 0
 450 519 454 551 447 573 c 24
 444 581 443 615 427 582 c 0
 398 523 370 481 329 481 c 0
 304 481 284 504 261 504 c 0
 243 504 216 489 216 467 c 0
 216 441 214 371 255 371 c 0
 312 371 327 436 386 436 c 0
 460 436 724 303 724 213 c 0
 724 119 518 -53 431 -53 c 0
 344 -53 306 35 234 35 c 0
 211 35 202 18 181 18 c 0
 131 18 50 59 50 119 c 0
 50 136 68 211 95 211 c 0
 208 211 248 47 333 47 c 0
 441 47 448 133 540 133 c 0
 555 133 590 119 603 119 c 0
 629 119 654 188 654 209 c 0
 654 257 626 289 577 289 c 0
 553 289 526 270 507 270 c 0
 448 270 485 350 441 350 c 0
 354 350 316 240 245 240 c 0
 169 240 77 309 77 389 c 0
 77 502 194 678 310 678 c 4
EndSplineSet
Validated: 33
EndChar

StartChar: T
Encoding: 84 84 20
Width: 755
VWidth: 0
Flags: HW
LayerCount: 2
Fore
SplineSet
93 700 m 4
 127 700 136 657 167 657 c 0
 244 657 293 737 374 737 c 0
 410 737 427 690 466 690 c 0
 528 690 558 745 622 745 c 0
 688 745 726 716 726 651 c 0
 726 609 682 602 650 602 c 0
 605 602 554 637 509 637 c 0
 474 637 452 633 452 596 c 0
 452 558 480 530 480 494 c 0
 480 445 372 467 372 395 c 0
 372 320 493 298 493 219 c 0
 493 202 311 12 288 12 c 0
 234 12 210 57 210 102 c 0
 210 153 298 139 298 225 c 0
 298 264 275 301 275 340 c 0
 275 388 329 403 329 444 c 0
 329 458 312 490 306 506 c 0
 290 606 l 1
 287 606 287 596 278 596 c 0
 263 596 257 612 241 612 c 0
 224 612 204 578 183 578 c 0
 143 578 129 606 73 606 c 0
 49 606 32 632 32 659 c 0
 32 673 83 700 93 700 c 4
EndSplineSet
Validated: 1
EndChar

StartChar: U
Encoding: 85 85 21
Width: 683
VWidth: 0
Flags: HW
LayerCount: 2
Fore
SplineSet
101 750 m 0
 123 736 248 829 273 600 c 0
 280 538 175 555 175 500 c 0
 175 432 259 392 259 330 c 0
 259 280 204 269 204 240 c 0
 204 211 219 126 257 129 c 0
 493 147 534 272 534 305 c 0
 534 348 478 368 478 406 c 0
 478 467 534 487 534 541 c 0
 534 582 488 606 488 643 c 0
 488 691 501 729 558 729 c 0
 596 729 644 637 644 598 c 0
 644 550 587 521 587 477 c 0
 587 428 626 390 626 340 c 0
 626 297 562 275 562 225 c 0
 562 178 615 158 615 115 c 0
 615 82 533 27 507 27 c 0
 474 27 466 63 435 63 c 0
 370 63 360 6 304 6 c 0
 270 6 266 29 234 29 c 0
 209 29 200 18 177 18 c 0
 133 18 42 289 42 324 c 0
 42 377 93 421 93 469 c 0
 93 508 69 542 69 582 c 0
 69 615 85 641 85 674 c 0
 85 683 69 750 97 750 c 0
 101 750 l 0
EndSplineSet
Validated: 33
EndChar

StartChar: V
Encoding: 86 86 22
Width: 903
VWidth: 0
Flags: HW
LayerCount: 2
Fore
SplineSet
44 645 m 0
 44 675 103 720 101 741 c 0
 116 717 l 0
 130 704 122 694 142 694 c 0
 159 694 l 0
 175 694 196 689 196 670 c 0
 196 659 183 654 183 647 c 0
 183 556 323 621 323 555 c 0
 323 546 327 524 312 524 c 0
 288 524 273 549 253 549 c 0
 249 549 232 550 232 543 c 0
 232 475 310 468 310 432 c 0
 310 350 423 314 423 238 c 0
 423 217 404 202 404 182 c 0
 404 177 423 129 425 129 c 0
 523 274 l 0
 523 294 515 313 515 332 c 0
 515 410 632 353 632 401 c 0
 632 438 605 462 605 500 c 0
 605 530 648 549 648 575 c 0
 648 603 622 625 622 653 c 0
 622 716 667 762 734 762 c 0
 734 762 816 613 816 602 c 0
 816 539 743 384 654 248 c 5
 646 121 471 10 404 10 c 0
 382 10 189 350 189 362 c 0
 189 512 44 539 44 645 c 0
EndSplineSet
Validated: 33
EndChar

StartChar: W
Encoding: 87 87 23
Width: 872
VWidth: 0
Flags: HW
LayerCount: 2
Fore
SplineSet
72 788 m 5
 82 799 103 803 114 803 c 4
 152 803 209 745 209 712 c 4
 209 677 185 648 185 618 c 4
 185 538 285 513 285 449 c 4
 285 400 255 361 255 313 c 4
 255 288 258 183 297 183 c 4
 444 409 l 4
 444 432 434 451 434 475 c 4
 434 480 439 522 449 522 c 4
 485 522 522 522 522 479 c 4
 522 457 493 436 493 418 c 4
 493 364 560 358 560 307 c 4
 560 282 546 260 546 234 c 4
 546 221 545 183 569 183 c 4
 588 183 636 184 636 217 c 4
 636 314 727 339 727 413 c 4
 727 468 678 499 678 550 c 4
 678 584 731 594 731 611 c 4
 731 635 720 655 720 680 c 4
 720 712 754 735 786 735 c 4
 817 735 824 693 824 667 c 4
 824 597 775 528 775 467 c 4
 775 429 781 392 781 354 c 4
 781 308 743 266 743 224 c 4
 743 197 756 171 756 145 c 4
 756 132 691 0 691 0 c 4
 663 0 546 71 546 94 c 4
 546 115 554 134 554 155 c 4
 554 180 491 193 491 236 c 4
 491 249 493 320 489 320 c 4
 416 320 381 10 293 10 c 4
 240 10 185 132 185 179 c 4
 185 200 200 217 200 237 c 4
 200 270 139 265 139 298 c 4
 139 338 162 370 162 409 c 4
 162 433 99 438 99 479 c 4
 99 505 101 530 101 556 c 4
 101 587 61 598 61 633 c 4
 61 645 65 657 65 669 c 4
 72 788 l 5
EndSplineSet
Validated: 33
EndChar

StartChar: X
Encoding: 88 88 24
Width: 806
VWidth: 0
Flags: HW
LayerCount: 2
Fore
SplineSet
93 743 m 4
 93 760 126 770 142 768 c 0
 202 760 248 739 281 709 c 1
 311 682 255 632 271 592 c 1
 291 540 380 495 390 432 c 0
 390 432 482 536 482 549 c 0
 482 557 705 737 749 737 c 0
 767 737 765 714 765 696 c 0
 765 598 656 583 656 496 c 0
 656 478 675 464 675 444 c 0
 675 400 517 444 517 362 c 0
 517 240 761 227 761 66 c 0
 761 31 653 27 638 27 c 0
 620 27 566 42 566 66 c 0
 566 92 577 112 577 137 c 0
 577 206 466 199 466 272 c 0
 466 287 474 298 474 313 c 0
 474 332 418 330 407 330 c 0
 371 330 396 260 396 244 c 0
 396 168 152 12 62 12 c 0
 50 12 32 91 32 96 c 0
 32 96 38 191 113 195 c 1
 138 223 127 268 140 287 c 0
 201 377 247 297 278 297 c 0
 301 297 302 342 290 367 c 24
 231 484 101 535 101 643 c 0
 101 660 116 663 116 676 c 0
 116 702 93 718 93 743 c 4
EndSplineSet
Validated: 33
EndChar

StartChar: Y
Encoding: 89 89 25
Width: 758
VWidth: 0
Flags: HW
LayerCount: 2
Fore
SplineSet
19 674 m 4
 19 704 25 770 58 756 c 0
 119 729 127 705 218 718 c 1
 272 751 264 660 282 639 c 1
 302 615 319 584 331 541 c 0
 339 515 327 495 327 469 c 0
 327 431 340 421 381 421 c 1
 381 421 390 469 408 493 c 24
 421 509 445 434 456 516 c 0
 460 544 511 561 511 561 c 17
 511 603 557 630 557 645 c 0
 557 667 532 677 532 700 c 0
 532 728 586 688 603 724 c 0
 642 739 l 1
 690 739 746 735 746 674 c 0
 746 472 478 528 478 420 c 0
 478 391 507 383 507 356 c 0
 507 348 419 351 419 297 c 0
 419 274 450 273 450 250 c 0
 450 212 407 190 407 141 c 0
 407 115 426 -8 382 -8 c 0
 363 -8 239 -10 239 29 c 0
 239 106 325 204 325 272 c 0
 325 295 284 294 284 319 c 0
 284 344 290 369 290 395 c 0
 290 440 189 428 189 467 c 0
 189 494 220 506 220 535 c 0
 220 566 110 521 110 567 c 0
 110 587 116 602 116 623 c 0
 116 651 19 634 19 674 c 4
EndSplineSet
Validated: 33
EndChar

StartChar: Z
Encoding: 90 90 26
Width: 804
VWidth: 0
Flags: HW
LayerCount: 2
Fore
SplineSet
62 641 m 4
 62 685 97 688 132 688 c 0
 168 688 193 655 232 655 c 0
 295 655 315 729 374 729 c 0
 423 729 438 659 486 659 c 0
 562 659 635 715 720 715 c 0
 754 715 771 682 771 655 c 0
 771 598 672 446 611 446 c 0
 497 446 206 338 206 205 c 0
 206 160 270 125 306 125 c 0
 352 125 344 174 382 174 c 0
 404 174 412 156 443 156 c 0
 528 156 586 262 687 262 c 0
 717 262 746 233 746 203 c 0
 746 172 717 88 681 88 c 0
 655 88 630 100 603 100 c 0
 545 100 491 41 425 41 c 0
 349 41 289 92 216 92 c 0
 122 92 l 0
 70 92 40 175 40 215 c 0
 40 303 167 455 263 455 c 0
 286 455 310 453 333 453 c 0
 389 453 410 494 462 494 c 0
 484 494 505 485 527 485 c 0
 555 485 540 489 562 496 c 0
 613 510 l 1
 624 563 l 0
 624 563 583 578 554 578 c 0
 521 578 521 547 486 547 c 0
 452 547 428 582 386 582 c 0
 337 582 308 549 261 549 c 0
 224 549 203 575 167 575 c 0
 148 575 126 557 105 557 c 0
 77 557 62 620 62 641 c 4
EndSplineSet
Validated: 1
EndChar

StartChar: a
Encoding: 97 97 27
Width: 772
VWidth: 0
Flags: HW
LayerCount: 2
Fore
SplineSet
319 86 m 1
 385.299804688 -61.919921875 188.434364965 4.44687823095 101.75 2.580078125 c 0
 61.7998046875 1.7197265625 69.4501953125 74.8203125 69.4501953125 103.200195312 c 0
 69.4501953125 183.1796875 181.650390625 151.360351562 181.650390625 237.360351562 c 0
 181.650390625 321.639648438 100.049804688 362.919921875 100.049804688 452.360351562 c 0
 100.049804688 491.919921875 209.700195312 456.66015625 209.700195312 509.120117188 c 0
 209.700195312 539.219726562 135.75 654.459960938 135.75 684.559570312 c 0
 135.75 771.419921875 259 891.8203125 627.900390625 779.16015625 c 0
 633 777.440429688 630.450195312 775.719726562 633 774 c 0
 723.950195312 724.98046875 703.549804688 620.919921875 618.549804688 560.719726562 c 0
 563.299804688 521.16015625 709.5 514.280273438 709.5 462.6796875 c 0
 709.5 390.440429688 525.049804688 407.639648438 525.049804688 330.240234375 c 0
 525.049804688 308.740234375 540.349609375 270.040039062 639.799804688 294.98046875 c 1
 707.799804688 300.139648438 718.849609375 157.379882812 718.849609375 79.98046875 c 0
 718.849609375 25.7998046875 627.600585938 18 597 18 c 0
 502.650390625 18 531 222 403 350 c 0
 342.188476562 410.811523438 545.450195312 405.059570312 545.450195312 496.219726562 c 0
 545.450195312 516.860351562 591.00003798 709.999590655 397 692 c 0
 337.093670617 686.441808271 373 772 259 684 c 5
 193.844726562 623.978515625 249.55078125 485.089694734 249.55078125 437.33984375 c 0
 249.55078125 395.200195312 359 401.240234375 359 372 c 0
 359 322.979492188 230.950195312 350.01953125 230.950195312 291.540039062 c 0
 230.950195312 227.900390625 349.599609375 296.700195312 327.5 181.459960938 c 0
 322.399414062 153.940429688 273.94921875 189.200195312 268 141.040039062 c 0
 263.75 104.060546875 319 86 319 86 c 1
EndSplineSet
Validated: 524321
EndChar

StartChar: b
Encoding: 98 98 28
Width: 1024
VWidth: 0
Flags: HW
LayerCount: 2
Fore
SplineSet
500 143 m 0
 449 123 397 82 336 226 c 0
 317 271 321 398 321 455 c 0
 321 512 207 509 179 590 c 0
 171 610 l 0
 119 689 110 584 110 547 c 0
 110 456 195 511 195 421 c 0
 195 374 137 347 137 296 c 0
 137 231 296 231 296 197 c 0
 296 162 163 156 163 80 c 0
 163 -24 353 4 423 4 c 0
 513 4 864 -41 864 99 c 0
 864 152 722 145 722 190 c 0
 722 238 807 251 807 302 c 0
 807 343 725 347 725 370 c 0
 725 414 858 400 858 513 c 0
 858 699 788 912 473 712 c 0
 431 685 202 726 202 657 c 0
 202 598 299 569 345 569 c 0
 426 569 462 430 528 536 c 4
 571 606 738 581 738 485 c 0
 738 428 651 399 607 399 c 0
 533 399 495 371 422 371 c 0
 381 371 371 345 371 307 c 0
 371 249 430 229 481 229 c 0
 536 229 578 328 638 328 c 0
 692 328 714 309 714 254 c 0
 714 174 572 172 500 143 c 0
EndSplineSet
Validated: 41
EndChar

StartChar: c
Encoding: 99 99 29
Width: 705
VWidth: 0
Flags: HW
LayerCount: 2
Fore
SplineSet
221 561 m 0
 226 564 314 602 314 602 c 0
 418 632 358 538 406 548 c 0
 421 551 411 589 430 593 c 0
 471 602 460 546 502 555 c 0
 531 561 519 587 544 592 c 0
 569 597 572 567 597 567 c 0
 607 567 626 617 594 654 c 0
 557 696 473 673 462 672 c 0
 459 672 405 737 342 731 c 0
 312 728 303 716 270 713 c 0
 242 710 182 747 138 743 c 0
 35 733 4 573 21 493 c 0
 29 455 82 471 86 452 c 0
 101 380 24 264 43 177 c 0
 59 101 166 86 168 79 c 0
 171 63 236 41 240 20 c 0
 244 3 320 25 329 27 c 0
 406 44 371 151 453 169 c 0
 540 188 709 182 681 311 c 0
 678 327 619 333 619 333 c 0
 589 327 565 288 535 281 c 0
 494 272 479 386 413 331 c 0
 361 288 321 143 229 161 c 0
 95 186 101 487 221 561 c 0
EndSplineSet
Validated: 41
EndChar

StartChar: d
Encoding: 100 100 30
Width: 741
VWidth: 0
Flags: HW
LayerCount: 2
Fore
SplineSet
36 719 m 0
 40 732 49 742 49 742 c 0
 86 783 126 771 132 765 c 0
 145 752 106 713 115 696 c 0
 173 583 290 391 290 259 c 0
 290 251 287 235 274 235 c 0
 253 235 238 240 220 240 c 0
 203 240 188 152 188 126 c 0
 188 101 237 80 262 80 c 0
 308 80 344 121 379 121 c 0
 438 121 633 78 633 157 c 0
 633 255 475 337 475 422 c 0
 475 457 482 525 482 552 c 0
 482 646 175 642 147 697 c 0
 135 719 144 757 167 766 c 0
 213 785 665 712 665 638 c 0
 665 610 614 601 614 580 c 0
 614 558 658 559 658 535 c 0
 658 509 691 548 698 412 c 0
 702 335 707 239 707 165 c 0
 707 13 469 13 354 13 c 0
 271 13 99 -8 99 108 c 0
 99 153 149 386 129 425 c 0
 118 447 83 451 71 474 c 0
 49 518 157 498 138 534 c 0
 118 572 62 587 49 622 c 0
 37 653 25 682 36 719 c 0
EndSplineSet
Validated: 33
EndChar

StartChar: e
Encoding: 101 101 31
Width: 778
VWidth: 0
Flags: HW
LayerCount: 2
Fore
SplineSet
130 744 m 0
 179 744 215 733 265 733 c 0
 327 733 340 801 415 801 c 0
 448 801 741 710 741 708 c 0
 741 692 740 667 721 654 c 24
 664 616 621 598 560 588 c 0
 492 577 514 669 456 669 c 0
 413 669 394 628 365 628 c 0
 346 628 325 642 310 642 c 0
 295 642 259 645 259 632 c 0
 259 607 320 444 369 444 c 0
 411 444 427 495 473 495 c 0
 570 495 481 431 544 431 c 0
 564 431 585 440 607 440 c 0
 625 440 635 443 635 421 c 0
 635 355 598 347 537 347 c 0
 508 347 383 394 383 415 c 0
 383 395 428 389 428 363 c 0
 428 348 375 361 375 357 c 0
 375 318 281 289 281 248 c 0
 281 236 280 236 271 236 c 0
 250 236 227 246 210 246 c 0
 199 246 192 230 192 221 c 0
 192 193 219 168 248 168 c 0
 386 168 485 279 617 279 c 0
 622 279 696 287 696 259 c 0
 696 227 632 104 590 104 c 0
 555 104 517 110 485 110 c 0
 394 110 369 7 287 7 c 0
 210 7 29 68 29 156 c 0
 29 250 287 292 287 341 c 0
 287 373 240 378 240 407 c 0
 240 437 271 460 271 487 c 0
 271 590 65 604 65 683 c 0
 65 715 84 744 130 744 c 0
EndSplineSet
Validated: 33
EndChar

StartChar: f
Encoding: 102 102 32
Width: 784
VWidth: 0
Flags: HW
HStem: 45 367<236 328> 354 112<426 596> 674 125<260 352> 775 20G<628 675>
VStem: 134 203<242 411> 156 51<429 539>
LayerCount: 2
Fore
SplineSet
752 721 m 1x14
 677 657 l 0
 671 655 565 596 564 596 c 0
 414 576 355 674 296 674 c 0
 271 674 208 601 208 562 c 0
 208 544 222 412 243 412 c 0xa4
 271 412 277 553 312 553 c 0
 364 553 398 466 455 466 c 0
 473 466 498 494 512 494 c 0
 545 494 641 453 641 453 c 0
 641 418 625 354 574 354 c 0x44
 551 354 349 431 349 408 c 0
 349 377 337 380 337 352 c 0
 337 327 353 318 353 279 c 0
 353 186 418 177 418 95 c 0
 418 38 350 45 306 45 c 0
 282 45 160 10 160 53 c 0
 160 105 203 147 203 195 c 0
 203 226 134 235 134 281 c 0x88
 134 352 156 410 156 478 c 0
 156 536 42 653 42 711 c 0
 42 768 116 801 292 799 c 0xa4
 442 797 329 721 481 732 c 0
 514 734 609 795 645 795 c 0
 704 795 729 742 752 721 c 1x14
EndSplineSet
Validated: 33
EndChar

StartChar: g
Encoding: 103 103 33
Width: 622
VWidth: 0
Flags: HW
LayerCount: 2
Fore
SplineSet
165 646 m 0
 153 725 197 768 253 779 c 0
 299 788 534 767 542 714 c 0
 550 664 610 561 508 522 c 0
 489 515 464 528 453 535 c 1
 469 593 l 1
 471 621 477 577 471 613 c 0
 469 629 457 655 441 652 c 0
 391 642 404 614 370 608 c 0
 320 598 328 633 266 621 c 0
 244 617 186 560 192 519 c 0
 199 473 221 440 228 394 c 0
 236 345 187 355 196 298 c 0
 214 182 281 124 374 142 c 0
 417 150 553 168 539 255 c 1
 539 255 535 274 527 273 c 0
 512 270 511 243 494 240 c 0
 484 238 459 246 449 244 c 0
 415 237 453 300 425 295 c 0
 383 287 291 250 280 324 c 0
 275 358 315 407 357 415 c 0
 416 426 368 335 426 346 c 0
 459 352 473 388 504 394 c 0
 555 404 588 331 598 264 c 0
 600 251 590 153 575 150 c 0
 553 146 548 146 526 142 c 0
 492 135 571 80 514 44 c 0
 438 -5 128 -2 100 176 c 0
 93 224 129 274 123 309 c 0
 118 343 51 438 44 482 c 0
 22 621 178 563 165 646 c 0
EndSplineSet
Validated: 33
EndChar

StartChar: h
Encoding: 104 104 34
Width: 646
VWidth: 0
Flags: HW
LayerCount: 2
Fore
SplineSet
188 813 m 0
 198 806 300 736 298 718 c 0
 295 691 249 688 249 674 c 0
 249 635 294 617 294 579 c 0
 294 540 208 543 208 492 c 0
 208 458 237 393 374 418 c 0
 374 418 500 433 500 455 c 0
 500 531 500 582 500 649 c 0
 500 707 356 678 428 780 c 0
 451 813 614 786 614 741 c 0
 614 678 540 534 540 475 c 0
 540 411 601 489 601 414 c 0
 601 340 522 283 522 207 c 0
 522 151 602 127 602 68 c 0
 602 35 581 10 548 10 c 0
 510 10 446 45 446 94 c 0
 446 169 475 252 475 330 c 0
 475 359 459 397 398 365 c 0
 398 365 214 389 263 337 c 0
 273 326 269 309 269 295 c 0
 269 260 204 362 211 231 c 0
 215 152 261 177 261 92 c 0
 261 56 214 -9 190 -9 c 0
 75 -9 39 94 39 190 c 0
 39 273 136 374 136 453 c 0
 136 496 66 496 66 544 c 0
 66 586 113 639 113 678 c 0
 113 703 79 717 79 751 c 0
 79 786 119 813 154 813 c 0
 188 813 l 0
EndSplineSet
Validated: 33
EndChar

StartChar: j
Encoding: 106 106 35
Width: 565
VWidth: 0
Flags: HW
LayerCount: 2
Fore
SplineSet
148 178 m 0
 182 179 l 0
 325 224 164 82 273 111 c 0
 416 149 418 259 418 259 c 0
 418 291 358 275 358 307 c 0
 358 354 449 502 449 560 c 0
 449 602 429 605 402 605 c 0
 383 605 376 581 356 581 c 0
 295 581 286 653 216 653 c 0
 202 653 185 635 165 628 c 24
 149 622 140 619 123 619 c 0
 102 619 86 640 86 670 c 0
 86 685 131 677 136 677 c 0
 189 677 224 719 278 719 c 0
 327 719 371 710 419 710 c 0
 458 710 480 755 524 755 c 0
 553 755 552 711 552 679 c 0
 552 610 515 550 515 484 c 0
 515 454 476 408 476 377 c 0
 476 333 506 251 485 208 c 1
 505 115 441 9 389 45 c 1
 247 56 240 15 201 30 c 0
 91 71 -16 147 40 193 c 1
 12 259 l 0
 -6 336 45 357 80 357 c 0
 135 357 87 213 148 178 c 0
EndSplineSet
Validated: 33
EndChar

StartChar: k
Encoding: 107 107 36
Width: 616
VWidth: 0
Flags: HW
HStem: 32 164<393 518> 237 90<275 361> 741 20G<85 120>
VStem: 37 151<426 513> 37 103<42 130> 58 130<134 233> 102 122<550 644> 105 33<305 359> 437 142<573 708>
LayerCount: 2
Fore
SplineSet
53 698 m 0xe280
 53 722 73 761 96 761 c 0
 102 761 l 1xe280
 187 668 l 0xe480
 201 639 224 627 224 589 c 0xe280
 224 549 187 528 187 489 c 0xf080
 187 463 241 426 345 487 c 0
 437 573 l 0
 437 657 442 732 533 776 c 0
 546 782 579 775 579 749 c 0
 579 686 596 575 527 526 c 1
 460 478 213 411 226 370 c 0
 226 370 322 327 333 327 c 0
 439 327 343 197 442 197 c 0
 471 197 506 220 529 220 c 0
 562 220 569 211 569 175 c 0
 569 138 562 32 511 32 c 0
 473 32 384 237 320 237 c 0
 139 305 l 0xe180
 139 254 187 219 187 169 c 0xe480
 187 134 140 123 140 111 c 0
 140 92 151 75 151 54 c 0
 151 41 144 21 130 21 c 0
 88 21 37 14 37 78 c 0xe880
 37 121 58 164 58 202 c 0xe480
 58 218 47 229 47 245 c 0
 47 293 105 337 105 359 c 0xe180
 105 399 37 405 37 447 c 0xf080
 37 500 102 566 102 608 c 0
 102 645 53 653 53 698 c 0xe280
EndSplineSet
Validated: 33
EndChar

StartChar: l
Encoding: 108 108 37
Width: 526
VWidth: 0
Flags: HW
HStem: 54 90<357 438> 59 111<104 155> 94 129<180 312> 94 90<244 283> 731 20G<155 199>
VStem: 15 86<83 319> 89 98<562 696> 89 61<544 594>
LayerCount: 2
Fore
SplineSet
171 752 m 0x4a
 227 743 187 659 187 641 c 0x4a
 187 607 151 597 151 565 c 0x49
 151 504 215 473 172 425 c 0
 118 365 101 342 101 272 c 0
 101 265 97 170 112 170 c 0x4c
 148 170 175 223 216 223 c 0x2c
 249 223 242 184 278 184 c 0x1c
 311 184 241 261 274 261 c 0
 340 261 332 144 397 144 c 0
 439 144 451 197 492 197 c 0
 492 197 508 200 508 190 c 0
 508 134 434 54 387 54 c 0x8c
 313 54 360 94 288 94 c 0x2c
 224 94 169 59 108 59 c 0
 52 59 15 53 15 113 c 0
 15 194 11 301 55 346 c 0
 149 442 15 425 15 473 c 0x4c
 15 525 89 536 89 588 c 0
 89 610 29 558 40 674 c 0
 42 699 56 788 155 752 c 0
 171 752 l 0x4a
EndSplineSet
Validated: 33
EndChar

StartChar: m
Encoding: 109 109 38
Width: 715
VWidth: 0
Flags: HW
VStem: 40 102<160 270> 103 141<359 484> 128 160<581 669> 561 113<181 292> 596 98<288 403> 600 102<126 226> 600 74<176 243>
LayerCount: 2
Fore
SplineSet
92 739 m 4x20
 133 769 288 689 288 622 c 0x20
 288 569 245 538 245 484 c 0
 245 470 356 285 356 285 c 0
 477 416 l 0
 554 518 346 383 403 542 c 0
 558 689 l 0
 616 713 653 686 653 647 c 0
 653 589 629 535 629 479 c 0
 629 419 694 410 694 352 c 0x48
 694 300 674 255 674 203 c 0x10
 674 173 702 164 702 141 c 0
 702 110 713 20 664 20 c 0
 595 20 471 45 523 134 c 0
 547 176 600 167 600 211 c 0x04
 600 241 561 245 561 270 c 0x10
 561 292 596 285 596 315 c 0
 596 331 599 403 573 403 c 0
 481 403 391 185 379 182 c 0
 286 156 179 352 179 386 c 0
 179 427 208 310 208 271 c 0
 208 240 142 227 142 185 c 0
 142 143 250 163 168 63 c 0
 156 48 176 26 153 26 c 0
 57 26 40 151 40 243 c 0x88
 40 298 103 310 103 359 c 0x40
 103 434 -3 456 -3 525 c 0
 -3 580 128 540 128 624 c 0
 128 669 55 712 92 739 c 4x20
EndSplineSet
Validated: 37
EndChar

StartChar: n
Encoding: 110 110 39
Width: 727
VWidth: 0
Flags: HW
LayerCount: 2
Fore
SplineSet
91 715 m 4
 110 715 227 815 241 674 c 1
 182 447 356 526 366 465 c 1
 398 405 291 426 324 367 c 1
 372 281 421 213 468 213 c 0
 535 213 532 506 531 537 c 0
 527 676 474 687 474 754 c 0
 474 777 607 733 607 756 c 0
 607 783 645 793 667 793 c 0
 696 793 699 763 699 743 c 0
 699 712 679 679 679 645 c 0
 679 622 701 616 701 596 c 0
 701 515 630 452 630 367 c 0
 630 325 652 295 652 256 c 0
 652 188 613 189 613 121 c 0
 613 87 705 119 646 47 c 0
 646 47 639 48 634 47 c 0
 503 22 323 35 348 242 c 1
 425 137 215 445 175 426 c 0
 160 419 163 406 163 393 c 0
 163 293 316 153 294 80 c 0
 278 27 167 39 136 16 c 0
 136 23 l 0
 75 58 60 144 60 209 c 0
 60 235 95 253 95 281 c 0
 95 352 24 394 24 471 c 0
 24 516 33 715 91 715 c 4
EndSplineSet
Validated: 33
EndChar

StartChar: o
Encoding: 111 111 40
Width: 606
VWidth: 0
Flags: HW
HStem: 14 121<268 491> 678 115<170 316>
VStem: 32 129<362 464> 81 130<504 616> 129 80<161 275> 139 145<277 352>
LayerCount: 2
Fore
SplineSet
457 180 m 1xc8
 483 199 506 234 506 270 c 0
 506 294 477 314 477 340 c 0
 477 378 442 595 410 633 c 0
 322 737 294 678 236 678 c 0
 210 678 195 635 195 616 c 0
 195 597 211 581 211 561 c 0xd0
 211 548 161 456 161 381 c 0xe0
 161 342 285 371 285 334 c 0xc4
 285 312 209 278 209 223 c 0
 209 152 253 135 315 135 c 0
 338 135 359 170 387 170 c 0
 406 170 400 162 412 152 c 0
 457 180 l 1xc8
291 776 m 1
 395 764 l 0
 535 734 556 547 564 467 c 0
 575 358 556 14 426 14 c 0
 309 14 129 46 129 197 c 0xc8
 129 230 139 261 139 293 c 0xc4
 139 339 32 343 32 395 c 0xe0
 32 450 81 490 81 537 c 0
 81 605 135 793 207 793 c 0
 226 793 281 788 291 776 c 1
EndSplineSet
Validated: 33
EndChar

StartChar: p
Encoding: 112 112 41
Width: 607
VWidth: 0
Flags: HW
LayerCount: 2
Fore
SplineSet
183 649 m 24
 170 653 167 619 165 618 c 0
 147 610 152 457 161 437 c 0
 196 358 360 300 433 332 c 0
 455 342 443 365 438 376 c 0
 438 376 428 394 425 400 c 0
 411 431 471 502 446 557 c 0
 430 593 382 569 377 580 c 0
 368 601 364 615 355 635 c 0
 341 667 322 661 297 650 c 0
 261 634 262 617 221 599 c 0
 212 595 208 599 205 605 c 0
 190 640 202 643 183 649 c 24
245 745 m 1
 275 745 l 0
 286 754 285 770 306 770 c 0
 352 770 383 719 423 719 c 0
 444 719 476 727 495 727 c 0
 573 727 591 500 577 438 c 0
 536 258 427 248 353 248 c 0
 278 248 223 305 155 305 c 0
 146 305 194 295 194 289 c 0
 194 239 228 206 228 156 c 0
 228 141 216 124 216 115 c 0
 216 56 278 35 278 -20 c 0
 278 -26 278 -41 273 -41 c 0
 148 -41 89 -38 89 68 c 0
 89 126 87 275 87 328 c 0
 87 372 65 402 65 444 c 0
 65 483 50 520 50 559 c 0
 50 576 181 750 194 750 c 0
 214 750 230 751 245 745 c 1
EndSplineSet
Validated: 33
EndChar

StartChar: q
Encoding: 113 113 42
Width: 610
VWidth: 0
Flags: HW
LayerCount: 2
Fore
SplineSet
336 141 m 28
 328 201 182 189 252 272 c 4
 317 349 376 199 393 199 c 4
 465 199 409 271 409 321 c 4
 409 343 452 342 452 366 c 4
 452 386 444 400 444 419 c 4
 444 450 507 469 507 505 c 4
 507 531 497 589 468 589 c 4
 448 589 453 541 425 541 c 4
 417 541 409 548 409 559 c 4
 409 581 377 660 377 682 c 4
 377 698 277 652 228 686 c 4
 88 784 265 539 205 539 c 4
 192 539 181 555 169 555 c 4
 148 555 132 561 132 538 c 4
 132 499 195 500 195 450 c 4
 195 421 103 459 103 391 c 4
 103 357 168 375 186 341 c 4
 192 329 206 288 165 298 c 4
 165 298 132 314 109 301 c 4
 100 296 101 282 101 273 c 4
 101 239 160 250 160 217 c 4
 160 204 151 193 151 180 c 4
 151 159 171 142 195 142 c 4
 205 142 215 144 225 144 c 4
 254 144 240 97 275 97 c 4
 288 97 339 116 336 141 c 28
332 58 m 4
 317 55 258 54 253 54 c 4
 146 54 20 127 20 239 c 4
 20 256 48 277 48 301 c 4
 48 343 26 383 26 427 c 4
 26 519 85 747 209 747 c 4
 266 747 492 811 470 727 c 4
 446 634 599 613 599 541 c 4
 599 491 546 497 546 439 c 4
 546 422 566 380 566 362 c 4
 566 332 523 326 523 296 c 4
 523 278 548 267 548 248 c 4
 548 197 466 242 466 162 c 4
 466 121 564 119 564 37 c 4
 564 27 476 19 467 19 c 4
 382 19 504 92 434 92 c 4
 417 92 418 106 407 106 c 4
 384 106 391 91 381 81 c 4
 381 81 375 68 332 58 c 4
EndSplineSet
Validated: 33
EndChar

StartChar: r
Encoding: 114 114 43
Width: 733
VWidth: 0
Flags: HW
LayerCount: 2
Fore
SplineSet
198 525 m 24
 212 502 142 522 142 490 c 0
 142 477 145 470 154 470 c 24
 172 469 177 486 195 488 c 24
 203 489 212 478 212 478 c 0
 229 455 204 429 223 429 c 24
 260 429 249 453 286 453 c 0
 312 453 306 405 335 405 c 0
 356 405 377 481 394 477 c 0
 416 471 438 442 466 435 c 0
 505 425 527 494 532 516 c 0
 536 532 489 519 495 545 c 0
 500 567 524 575 530 597 c 0
 532 605 520 610 516 611 c 0
 493 617 475 595 455 600 c 0
 432 606 446 724 390 724 c 0
 357 724 305 645 251 645 c 0
 219 645 159 580 121 580 c 0
 105 580 97 555 111 543 c 0
 120 535 180 555 198 525 c 24
125 34 m 0
 125 34 l 0
 83 30 84 46 84 65 c 0
 84 77 91 85 91 95 c 0
 91 137 41 154 41 195 c 0
 41 223 117 244 117 272 c 0
 117 311 49 357 49 402 c 0
 49 484 14 642 64 698 c 1
 101 739 186 723 301 799 c 1
 362 828 520 766 584 750 c 0
 670 728 705 536 687 462 c 0
 679 429 637 424 629 391 c 0
 624 371 639 365 635 348 c 0
 626 312 538 340 525 343 c 0
 494 351 484 359 453 367 c 0
 425 374 401 354 397 339 c 0
 394 326 394 297 418 291 c 0
 453 282 482 301 519 292 c 0
 530 289 631 280 613 214 c 1
 600 195 547 181 631 128 c 1
 710 95 656 33 612 15 c 0
 605 12 540 33 540 33 c 0
 455 54 606 163 376 210 c 1
 292 265 338 382 292 382 c 0
 272 382 259 322 259 307 c 0
 259 282 296 286 296 260 c 0
 296 213 208 258 208 200 c 0
 208 148 353 69 297 13 c 0
 283 -1 182 33 125 34 c 0
EndSplineSet
Validated: 33
EndChar

StartChar: s
Encoding: 115 115 44
Width: 727
VWidth: 0
Flags: HW
LayerCount: 2
Fore
SplineSet
428 38 m 0
 388 38 353 67 317 67 c 0
 296 67 286 24 248 24 c 0
 202 24 196 85 162 85 c 0
 140 85 125 79 102 79 c 0
 77 79 68 120 68 138 c 0
 68 176 80 284 120 284 c 0
 154 284 170 227 204 227 c 0
 213 227 254 239 266 239 c 0
 290 239 302 220 289 200 c 0
 283 191 279 161 291 142 c 0
 306 116 355 104 371 137 c 0
 400 196 383 246 424 246 c 0
 449 246 454 212 477 212 c 0
 495 212 560 235 567 256 c 0
 601 350 528 358 487 358 c 0
 430 358 411 280 352 280 c 0
 278 280 14 413 14 503 c 0
 14 597 220 769 307 769 c 0
 394 769 432 681 504 681 c 0
 527 681 583 721 604 721 c 0
 654 721 715 670 712 610 c 0
 708 536 695 537 668 537 c 0
 555 537 491 669 406 669 c 0
 298 669 425 569 333 567 c 0
 250 565 286 608 190 602 c 0
 164 600 135 560 130 540 c 0
 120 502 132 453 181 453 c 0
 205 453 212 445 231 445 c 0
 290 445 253 366 297 366 c 0
 384 366 423 476 494 476 c 0
 570 476 678 401 678 321 c 0
 678 208 544 38 428 38 c 0
EndSplineSet
Validated: 33
EndChar

StartChar: t
Encoding: 116 116 45
Width: 741
VWidth: 0
Flags: HW
LayerCount: 2
Fore
SplineSet
93 700 m 0
 127 700 136 657 167 657 c 0
 244 657 293 737 374 737 c 0
 410 737 427 690 466 690 c 0
 528 690 558 745 622 745 c 0
 688 745 726 716 726 651 c 0
 726 609 698 555 666 555 c 0
 621 555 569 590 524 590 c 0
 489 590 467 586 467 549 c 0
 467 511 499 514 499 478 c 0
 499 429 412 457 412 385 c 0
 412 310 495 201 471 126 c 0
 436 15 345 13 322 13 c 4
 268 13 244 72 244 117 c 0
 244 168 332 154 332 240 c 0
 332 279 275 301 275 340 c 0
 275 388 338 404 329 444 c 0
 310 530 383 488 360 560 c 0
 352 587 287 574 287 574 c 1
 284 574 283 564 274 564 c 0
 259 564 254 581 238 581 c 0
 221 581 201 546 180 546 c 0
 140 546 114 562 58 562 c 0
 34 562 32 632 32 659 c 0
 32 673 83 700 93 700 c 0
EndSplineSet
Validated: 33
EndChar

StartChar: u
Encoding: 117 117 46
Width: 642
VWidth: 0
Flags: HW
LayerCount: 2
Fore
SplineSet
65 674 m 4
 65 683 49 750 77 750 c 0
 81 750 l 0
 103 736 228 829 253 600 c 0
 260 538 155 555 155 500 c 0
 155 432 233 484 233 422 c 0
 233 372 190 342 190 313 c 0
 190 284 109 211 197 145 c 0
 238 115 346 98 371 213 c 1
 484 203 530 233 471 299 c 0
 443 331 485 341 485 379 c 0
 485 440 541 460 541 514 c 0
 541 555 426 528 426 565 c 0
 426 613 492 793 549 793 c 0
 587 793 635 701 635 662 c 0
 635 614 594 495 594 451 c 0
 594 402 633 363 633 313 c 0
 633 270 542 275 542 225 c 0
 542 178 595 158 595 115 c 0
 595 82 512 27 486 27 c 0
 453 27 446 63 415 63 c 0
 350 63 340 6 284 6 c 0
 250 6 246 29 214 29 c 0
 189 29 180 18 157 18 c 0
 113 18 -84 211 38 260 c 0
 87 280 73 421 73 469 c 0
 73 508 48 542 48 582 c 0
 48 615 65 641 65 674 c 4
EndSplineSet
Validated: 33
EndChar

StartChar: v
Encoding: 118 118 47
Width: 714
VWidth: 0
Flags: HW
LayerCount: 2
Fore
SplineSet
314 197 m 0
 296 208 338 228 344 250 c 0
 365 332 253 317 253 410 c 0
 253 450 214 448 195 480 c 0
 138 577 155 668 155 681 c 0
 155 703 138 709 124 709 c 0
 110 709 l 0
 93 709 119 753 107 772 c 0
 99 784 56 779 56 779 c 0
 19 778 17 703 27 653 c 24
 56 516 150 502 150 331 c 0
 150 317 249 19 267 11 c 0
 321 -14 474 82 550 194 c 1
 588 264 643 506 662 574 c 0
 717 773 640 776 640 776 c 0
 586 800 537 768 520 700 c 0
 512 670 553 534 545 504 c 0
 538 476 497 471 489 438 c 0
 479 397 494 362 484 322 c 0
 471 271 376 160 314 197 c 0
EndSplineSet
Validated: 41
EndChar

StartChar: w
Encoding: 119 119 48
Width: 806
VWidth: 0
Flags: HW
LayerCount: 2
Fore
SplineSet
40 774 m 1
 50 785 71 789 82 789 c 0
 120 789 177 731 177 698 c 0
 177 663 153 634 153 604 c 0
 153 524 234 513 234 449 c 0
 234 400 204 361 204 313 c 0
 204 288 207 183 246 183 c 0
 298 207 l 0
 273 397 357 265 355 412 c 0
 355 417 392 488 402 488 c 0
 438 488 474 487 474 444 c 0
 474 422 446 402 446 384 c 0
 446 330 509 358 509 307 c 0
 509 282 495 260 495 234 c 0
 495 221 494 183 518 183 c 0
 537 183 585 184 585 217 c 0
 585 314 676 339 676 413 c 0
 676 468 620 586 620 637 c 0
 620 671 673 680 673 697 c 0
 673 721 662 742 662 767 c 0
 662 799 724 805 756 805 c 0
 787 805 794 763 794 737 c 0
 794 667 724 528 724 467 c 0
 724 429 757 376 757 338 c 0
 757 292 725 244 725 202 c 0
 725 175 738 149 738 123 c 0
 738 110 640 0 640 0 c 0
 527 0 495 71 495 94 c 0
 495 115 503 134 503 155 c 0
 503 180 407 160 407 203 c 0
 407 216 409 288 405 288 c 0
 332 288 330 10 242 10 c 0
 189 10 133 132 133 179 c 0
 133 200 149 217 149 237 c 0
 149 270 88 265 88 298 c 0
 88 338 110 370 110 409 c 0
 110 433 48 438 48 479 c 0
 48 505 69 516 69 542 c 0
 69 573 29 584 29 619 c 0
 29 631 33 643 33 655 c 0
 40 774 l 1
EndSplineSet
Validated: 33
EndChar

StartChar: x
Encoding: 120 120 49
Width: 806
VWidth: 0
Flags: HW
LayerCount: 2
Fore
SplineSet
750 682 m 4
 766 680 773 647 769 631 c 4
 756 572 733 530 701 500 c 5
 672 473 630 532 591 520 c 5
 540 505 490 422 430 418 c 4
 430 418 520 317 532 316 c 4
 539 315 691 79 687 36 c 4
 685 19 664 22 647 24 c 4
 555 33 548 141 466 149 c 4
 449 151 435 134 416 136 c 4
 374 140 431 291 353 299 c 4
 237 310 202 71 50 86 c 4
 17 89 23 195 24 210 c 4
 26 228 46 280 68 278 c 4
 92 276 110 263 134 261 c 4
 199 255 203 365 272 358 c 4
 287 357 296 347 310 346 c 4
 328 344 331 401 332 411 c 4
 335 447 266 428 251 429 c 4
 179 436 54 690 62 779 c 4
 63 791 139 802 144 802 c 4
 144 802 233 787 230 713 c 5
 254 686 297 692 314 677 c 4
 394 608 315 571 312 541 c 4
 310 518 353 512 377 522 c 28
 493 570 553 693 655 683 c 4
 671 681 673 667 685 666 c 4
 710 664 726 684 750 682 c 4
EndSplineSet
Validated: 33
EndChar

StartChar: y
Encoding: 121 121 50
Width: 705
VWidth: 0
Flags: HW
LayerCount: 2
Fore
SplineSet
676 700 m 0
 676 730 670 797 641 783 c 0
 586 756 579 732 497 745 c 1
 448 778 456 686 440 665 c 1
 422 641 407 609 396 566 c 0
 389 539 399 521 399 494 c 0
 399 455 388 445 351 445 c 1
 351 445 344 493 327 517 c 24
 315 534 293 458 283 541 c 0
 280 569 233 587 233 587 c 17
 233 630 192 656 192 671 c 0
 192 693 214 704 214 727 c 0
 214 755 167 715 151 751 c 0
 116 767 l 1
 73 767 22 762 22 700 c 0
 22 496 263 553 263 444 c 0
 263 415 237 407 237 380 c 0
 237 372 316 374 316 320 c 0
 316 297 289 296 289 272 c 0
 289 234 274 214 274 165 c 0
 274 139 257 14 296 14 c 0
 313 14 425 12 425 51 c 0
 425 129 401 226 401 295 c 0
 401 318 438 317 438 343 c 0
 438 369 433 393 433 419 c 0
 433 464 523 452 523 492 c 0
 523 520 495 531 495 560 c 0
 495 591 595 547 595 593 c 0
 595 613 589 628 589 649 c 0
 589 677 676 659 676 700 c 0
EndSplineSet
Validated: 41
EndChar

StartChar: z
Encoding: 122 122 51
Width: 787
VWidth: 0
Flags: HW
LayerCount: 2
Fore
SplineSet
24 584 m 0
 -8 614 12 641 36 667 c 0
 61 694 154 671 192 680 c 0
 254 694 255 771 313 784 c 0
 361 795 549 640 586 670 c 0
 644 718 585 749 650 803 c 0
 676 825 711 811 728 790 c 0
 764 746 801 509 758 466 c 0
 704 411 548 330 447 391 c 1
 295 389 315 294 269 235 c 0
 241 199 350 172 385 181 c 0
 499 211 465 222 502 231 c 0
 524 236 536 220 566 227 c 0
 649 246 619 296 718 319 c 0
 747 326 782 304 789 275 c 0
 796 245 787 156 752 148 c 0
 726 142 699 149 673 143 c 0
 617 130 577 59 513 44 c 0
 439 27 302 97 302 97 c 0
 302 97 234 94 213 107 c 0
 164 138 114 169 105 208 c 0
 85 294 188 291 209 354 c 0
 216 376 216 404 337 418 c 0
 393 424 380 423 410 466 c 0
 428 493 475 530 522 506 c 0
 547 494 542 415 651 462 c 0
 651 462 732 506 704 581 c 0
 697 601 694 622 673 625 c 0
 646 629 632 609 610 591 c 0
 585 570 499 640 464 632 c 0
 431 624 400 653 359 643 c 0
 311 632 290 594 244 583 c 0
 208 575 167 643 143 616 c 0
 130 602 128 574 114 558 c 0
 95 537 40 569 24 584 c 0
EndSplineSet
Validated: 33
EndChar

StartChar: exclam
Encoding: 33 33 52
Width: 440
VWidth: 0
Flags: HW
LayerCount: 2
Fore
SplineSet
187 801 m 0
 202 799 l 0
 216 783 237 783 237 758 c 0
 237 743 l 0
 237 650 382 640 382 561 c 0
 382 483 245 486 245 422 c 0
 245 398 275 376 275 348 c 0
 275 309 260 285 220 285 c 0
 194 285 187 271 187 248 c 0
 187 232 204 213 204 190 c 0
 204 157 239 154 267 164 c 0
 324 185 374 136 376 78 c 0
 376 24 358 -12 302 -12 c 0
 234 -12 93 1 93 92 c 0
 93 111 102 131 124 131 c 0
 142 131 158 123 173 123 c 0
 183 123 185 133 185 139 c 0
 185 158 81 168 144 199 c 0
 156 205 185 192 185 209 c 0
 185 256 93 264 93 303 c 0
 93 363 179 351 179 383 c 0
 179 431 77 428 77 494 c 0
 77 547 144 560 144 596 c 0
 144 651 58 662 58 735 c 0
 58 777 85 780 116 780 c 0
 124 780 188 806 187 801 c 0
EndSplineSet
Validated: 33
EndChar

StartChar: quotedbl
Encoding: 34 34 53
Width: 1024
VWidth: 0
Flags: HW
LayerCount: 2
Fore
SplineSet
128 670 m 0
 143 684 206 662 137 580 c 0
 134 576 111 559 109 522 c 0
 106 461 172 482 179 529 c 0
 182 547 214 609 230 614 c 0
 280 628 308 713 308 725 c 0
 308 753 303 772 273 772 c 0
 229 772 231 665 174 665 c 4
 164 665 149 690 157 705 c 4
 171 731 208 733 208 760 c 0
 208 760 197 792 180 801 c 0
 168 807 123 774 123 774 c 1
 70 734 37 655 44 600 c 0
 46 587 45 578 62 578 c 0
 77 578 98 590 98 607 c 0
 98 612 96 640 128 670 c 0
EndSplineSet
Validated: 41
EndChar

StartChar: numbersign
Encoding: 35 35 54
Width: 622
VWidth: 0
Flags: HW
LayerCount: 2
Fore
SplineSet
528 176 m 0
 507 175 386 196 362 196 c 0
 294 196 219 209 153 209 c 0
 118 209 39 232 39 279 c 0
 39 300 73 292 82 292 c 0
 126 292 169 252 225 252 c 0
 248 252 279 281 307 281 c 0
 344 281 555 228 555 189 c 0
 555 178 552 184 548 180 c 0
 528 176 l 0
106 432 m 24
 94 454 138 465 159 465 c 0
 225 465 266 404 331 404 c 0
 372 404 414 441 464 441 c 0
 502 441 588 404 588 348 c 0
 588 342 505 344 505 344 c 0
 457 344 431 386 385 386 c 0
 337 386 282 335 225 348 c 0
 194 355 134 382 106 432 c 24
495 602 m 1
 500 598 l 0
 500 597 505 582 505 582 c 0
 505 532 464 501 464 458 c 0
 464 434 471 421 471 395 c 0
 471 305 409 9 318 9 c 0
 296 9 280 11 280 38 c 0
 280 101 354 133 354 180 c 0
 354 219 340 254 340 294 c 0
 340 371 430 386 430 450 c 0
 430 479 409 499 409 530 c 0
 409 555 419 593 452 593 c 0
 495 602 l 1
347 647 m 1
 362 586 l 0
 363 581 368 571 368 562 c 0
 368 533 331 518 331 499 c 0
 331 419 242 411 242 371 c 0
 242 354 245 339 245 322 c 0
 245 279 187 259 187 213 c 0
 187 171 209 138 209 95 c 0
 209 41 154 18 110 18 c 0
 83 18 67 47 67 74 c 0
 67 126 139 144 139 173 c 0
 139 202 115 221 115 254 c 0
 115 326 215 336 215 373 c 0
 215 400 204 422 204 449 c 0
 204 525 319 500 319 557 c 0
 319 578 304 599 304 623 c 0
 304 644 336 645 347 647 c 1
EndSplineSet
Validated: 37
EndChar

StartChar: dollar
Encoding: 36 36 55
Width: 665
VWidth: 0
Flags: HW
LayerCount: 2
Fore
SplineSet
247 -130 m 1
 215 -83 252 -45 252 -14 c 0
 252 72 284 167 284 254 c 0
 284 356 312 456 312 559 c 0
 312 630 417 837 481 791 c 0
 504 775 354 357 354 326 c 0
 354 313 331 234 331 234 c 0
 331 188 365 165 365 123 c 0
 365 77 314 55 314 7 c 0
 314 -31 356 -61 356 -104 c 0
 356 -146 365 -178 282 -178 c 0
 247 -130 l 1
347 344 m 0
 338 347 305 344 280 344 c 0
 237 344 271 371 257 371 c 0
 233 371 218 334 196 334 c 0
 175 334 67 444 67 456 c 0
 67 467 160 606 164 606 c 0
 184 606 203 602 222 602 c 0
 250 602 269 647 308 647 c 0
 330 647 346 622 375 622 c 0
 399 622 415 657 440 645 c 24
 517 607 625 592 611 505 c 24
 599 429 463 530 421 530 c 0
 385 530 366 507 333 507 c 0
 299 507 264 516 231 516 c 0
 194 516 192 462 192 440 c 0
 192 375 349 429 366 429 c 0
 442 429 622 319 622 242 c 0
 622 4 341 -30 143 -30 c 0
 88 -30 37 96 37 141 c 0
 37 163 59 188 83 188 c 0
 131 188 126 61 197 61 c 0
 233 61 232 126 284 126 c 0
 309 126 340 90 379 90 c 0
 416 90 537 172 537 209 c 0
 537 222 516 245 502 245 c 0
 488 245 464 236 451 236 c 0
 412 236 360 315 352 339 c 0
 347 344 l 0
EndSplineSet
Validated: 37
EndChar

StartChar: percent
Encoding: 37 37 56
Width: 718
VWidth: 0
Flags: HW
LayerCount: 2
Fore
SplineSet
633 155 m 1
 640 155 l 0
 654 155 661 186 661 194 c 0
 661 210 641 272 619 272 c 0
 619 272 603 269 599 269 c 0
 577 269 571 287 550 287 c 0
 534 287 530 270 530 262 c 0
 530 249 534 243 534 232 c 0
 534 232 499 200 499 176 c 0
 499 160 511 164 511 155 c 0
 511 137 485 128 485 107 c 0
 485 75 501 70 534 70 c 0
 567 70 547 100 578 100 c 0
 599 100 618 119 640 117 c 0
 633 155 l 1
194 517 m 1
 201 517 l 0
 215 517 222 549 222 557 c 0
 222 573 202 635 180 635 c 0
 180 635 164 631 160 631 c 0
 138 631 132 650 111 650 c 0
 95 650 92 633 92 625 c 0
 92 612 95 606 95 595 c 0
 95 595 60 563 60 539 c 0
 60 523 72 526 72 517 c 0
 72 499 46 491 46 470 c 0
 46 438 62 433 95 433 c 0
 128 433 108 463 139 463 c 0
 160 463 179 481 201 479 c 0
 194 517 l 1
583 680 m 1
 572 727 l 0
 528 831 441 743 445 711 c 0
 449 675 447 640 447 604 c 0
 447 497 173 395 173 350 c 0
 173 320 228 224 228 193 c 0
 228 158 73 211 73 141 c 0
 73 81 143 4 208 4 c 0
 351 94 l 0
 429 178 325 253 325 307 c 0
 325 401 493 279 493 362 c 0
 493 395 468 466 468 500 c 0
 468 500 548 483 566 563 c 0
 583 680 l 1
EndSplineSet
Validated: 41
EndChar

StartChar: ampersand
Encoding: 38 38 57
Width: 602
VWidth: 0
Flags: HW
LayerCount: 2
Fore
SplineSet
573 200 m 24
 583 214 559 236 559 242 c 0
 559 264 579 278 579 298 c 0
 579 322 561 337 538 337 c 0
 469 337 491 201 407 201 c 0
 281 201 184 333 184 460 c 0
 184 515 198 577 266 577 c 0
 303 577 338 573 338 529 c 0
 338 327 54 453 54 293 c 0
 54 272 38 240 38 213 c 0
 38 112 89 25 193 25 c 0
 314 25 459 185 459 313 c 0
 459 318 462 359 445 359 c 0
 345 359 346 55 216 55 c 0
 134 55 125 131 125 198 c 0
 125 448 400 276 400 525 c 0
 400 575 360 659 306 659 c 0
 223 659 115 610 115 506 c 0
 115 440 188 381 188 333 c 0
 188 313 174 309 174 289 c 0
 174 268 289 146 311 146 c 0
 349 146 367 172 398 172 c 0
 442 172 463 203 494 203 c 0
 510 203 516 196 529 196 c 0
 538 196 534 194 534 211 c 0
 534 216 563 187 573 200 c 24
EndSplineSet
Validated: 37
EndChar

StartChar: quotesingle
Encoding: 39 39 58
Width: 1024
VWidth: 0
Flags: HW
LayerCount: 2
Fore
SplineSet
349 846 m 1
 356 819 409 820 409 793 c 0
 409 788 407 780 407 774 c 0
 407 746 445 722 445 707 c 0
 445 581 307 603 222 598 c 0
 160 595 224 628 251 637 c 0
 280 646 335 651 331 694 c 0
 331 739 271 754 271 805 c 0
 271 824 298 852 314 852 c 4
 349 846 l 1
EndSplineSet
Validated: 33
EndChar

StartChar: parenleft
Encoding: 40 40 59
Width: 458
VWidth: 0
Flags: HW
LayerCount: 2
Fore
SplineSet
311 785 m 1
 322 788 339 790 353 790 c 0
 370 790 381 775 381 763 c 0
 381 738 329 742 329 714 c 0
 329 704 331 692 331 681 c 0
 331 676 169 459 169 408 c 0
 169 218 414 192 414 51 c 0
 414 33 394 32 377 32 c 0
 266 32 80 166 80 282 c 0
 80 301 86 319 86 338 c 0
 86 373 58 404 58 442 c 0
 58 475 51 540 163 639 c 0
 311 785 l 1
EndSplineSet
Validated: 33
EndChar

StartChar: parenright
Encoding: 41 41 60
Width: 407
VWidth: 0
Flags: HW
LayerCount: 2
Fore
SplineSet
103 785 m 1
 250 639 l 0
 362 540 355 475 355 442 c 0
 355 404 328 373 328 338 c 0
 328 319 333 301 333 282 c 0
 333 166 147 32 36 32 c 0
 19 32 0 33 -0 51 c 0
 0 192 245 218 245 408 c 0
 245 459 83 676 83 681 c 0
 83 692 84 704 84 714 c 0
 84 742 33 738 33 763 c 0
 33 775 43 790 60 790 c 0
 74 790 92 788 103 785 c 1
EndSplineSet
Validated: 33
EndChar

StartChar: asterisk
Encoding: 42 42 61
Width: 1024
VWidth: 0
Flags: HW
LayerCount: 2
Fore
SplineSet
475 468 m 4
 475 476 l 4
 475 500 429 495 406 495 c 4
 389 495 383 479 383 466 c 4
 383 437 412 423 412 392 c 4
 412 375 404 385 404 365 c 0
 404 341 419 322 419 299 c 0
 419 286 407 270 398 270 c 0
 365 270 316 453 212 453 c 0
 204 453 208 412 208 412 c 0
 208 364 376 270 376 244 c 0
 376 231 364 231 357 231 c 0
 304 231 261 246 210 246 c 0
 172 246 155 211 155 178 c 0
 155 166 283 168 284 168 c 0
 306 168 321 178 343 178 c 0
 355 178 372 177 372 168 c 0
 372 142 308 131 308 78 c 0
 308 45 309 18 351 18 c 0
 402 18 360 152 419 152 c 0
 437 152 441 100 441 90 c 0
 441 84 443 78 443 72 c 0
 443 49 458 18 486 18 c 0
 513 18 507 49 507 66 c 0
 507 108 458 128 458 166 c 0
 458 152 576 102 603 102 c 0
 625 102 648 125 648 145 c 0
 648 220 464 157 464 250 c 0
 464 250 584 236 593 236 c 0
 630 236 665 250 665 291 c 0
 665 318 607 307 589 307 c 0
 554 307 533 281 490 281 c 0
 467 281 444 278 444 303 c 0
 444 319 480 337 480 350 c 0
 480 370 493 388 493 404 c 4
 493 413 512 434 475 468 c 4
EndSplineSet
Validated: 41
EndChar

StartChar: plus
Encoding: 43 43 62
Width: 565
VWidth: 0
Flags: HW
LayerCount: 2
Fore
SplineSet
327 474 m 1
 348 466 l 0
 361 445 359 468 359 448 c 0
 359 424 337 399 337 379 c 0
 337 357 364 344 364 325 c 0
 364 314 353 305 353 297 c 0
 353 276 386 245 406 245 c 0
 428 245 453 256 474 256 c 0
 497 256 529 243 529 213 c 0
 529 175 494 195 465 195 c 0
 449 195 430 179 411 179 c 0
 393 179 369 191 354 191 c 0
 342 191 327 190 327 179 c 0
 327 145 364 117 364 81 c 0
 364 71 364 -11 343 -11 c 0
 339 -11 280 -19 280 4 c 0
 280 24 290 42 290 61 c 0
 290 84 250 95 250 121 c 0
 250 145 256 167 256 191 c 0
 256 196 215 213 212 213 c 0
 180 213 179 191 146 191 c 0
 121 191 50 183 50 222 c 0
 50 237 62 261 78 261 c 0
 96 261 104 253 118 253 c 0
 131 253 135 297 151 297 c 0
 193 297 215 259 255 259 c 0
 259 259 261 259 261 259 c 0
 261 264 260 269 260 274 c 0
 260 306 290 326 290 353 c 0
 290 381 260 399 260 422 c 0
 260 436 252 460 279 460 c 0
 327 474 l 1
EndSplineSet
Validated: 33
EndChar

StartChar: comma
Encoding: 44 44 63
Width: 425
VWidth: 0
Flags: HW
LayerCount: 2
Fore
SplineSet
234 37 m 0
 318 14 312 -30 312 -78 c 0
 312 -102 278 -199 249 -199 c 0
 181 -199 l 0
 160 -199 136 -238 103 -238 c 0
 93 -238 58 -237 58 -225 c 0
 58 -158 198 -135 198 -76 c 0
 198 -47 159 -44 159 -16 c 0
 159 -6 165 3 173 23 c 0
 183 50 230 38 234 37 c 0
EndSplineSet
Validated: 33
EndChar

StartChar: hyphen
Encoding: 45 45 64
Width: 645
VWidth: 0
Flags: HW
LayerCount: 2
Fore
SplineSet
140 180 m 0
 132 180 l 0
 95 180 50 201 50 242 c 0
 50 248 51 246 60 246 c 0
 81 246 92 244 118 244 c 0
 149 244 175 281 214 281 c 0
 255 281 280 260 316 260 c 0
 355 260 377 285 421 285 c 0
 435 285 455 270 478 270 c 0
 499 270 522 285 546 285 c 0
 563 285 613 273 613 256 c 0
 613 224 597 193 562 193 c 0
 518 193 483 213 441 213 c 0
 402 213 367 191 321 188 c 0
 294 187 169 195 140 180 c 0
EndSplineSet
Validated: 33
EndChar

StartChar: period
Encoding: 46 46 65
Width: 337
VWidth: 0
Flags: HW
LayerCount: 2
Fore
SplineSet
245 80 m 1
 275 20 l 0
 275 8 l 0
 275 -15 239 -15 239 -37 c 0
 239 -45 243 -54 243 -61 c 0
 243 -81 235 -92 214 -92 c 0
 205 -92 180 -86 171 -86 c 0
 152 -86 148 -100 134 -100 c 0
 101 -100 99 -60 99 -37 c 0
 99 -13 81 -4 81 23 c 0
 81 44 87 66 112 66 c 0
 144 66 l 0
 157 66 150 104 157 104 c 0
 187 104 222 95 245 80 c 1
EndSplineSet
Validated: 1
EndChar

StartChar: slash
Encoding: 47 47 66
Width: 684
VWidth: 0
Flags: HW
LayerCount: 2
Fore
SplineSet
433 670 m 4
 452 709 501 740 519 722 c 0
 585 654 449 583 449 583 c 0
 449 560 460 537 460 515 c 0
 460 451 374 456 374 378 c 0
 374 276 236 11 117 11 c 0
 100 11 99 30 99 45 c 0
 99 90 216 191 189 328 c 1
 187 412 302 456 340 518 c 1
 388 596 426 655 433 670 c 4
EndSplineSet
Validated: 33
EndChar

StartChar: backslash
Encoding: 92 92 67
Width: 546
VWidth: 0
Flags: HW
LayerCount: 2
Fore
SplineSet
61 729 m 4
 61 745 62 764 79 764 c 0
 197 764 334 492 334 386 c 0
 334 306 419 310 419 244 c 0
 419 221 407 199 407 175 c 0
 407 175 543 102 477 32 c 0
 460 14 409 45 391 85 c 0
 384 100 347 162 300 242 c 1
 263 305 149 352 151 438 c 1
 177 579 61 683 61 729 c 4
EndSplineSet
Validated: 33
EndChar

StartChar: bracketleft
Encoding: 91 91 68
Width: 563
VWidth: 0
Flags: HW
LayerCount: 2
Fore
SplineSet
68 748 m 4
 68 785 92 794 121 794 c 0
 155 794 189 756 226 756 c 0
 265 756 302 785 348 785 c 0
 375 785 437 757 437 716 c 0
 437 704 422 706 413 706 c 0
 381 706 355 683 324 683 c 0
 302 683 281 697 260 697 c 0
 160 697 153 545 153 444 c 0
 153 399 160 356 160 312 c 0
 129 197 l 0
 129 156 149 138 177 138 c 0
 215 138 295 153 332 153 c 0
 363 153 439 156 439 98 c 0
 439 64 386 57 371 57 c 0
 355 57 334 69 319 69 c 0
 272 69 177 38 133 38 c 0
 119 38 112 55 103 63 c 0
 61 121 l 1
 61 135 62 150 55 163 c 0
 55 239 l 0
 55 254 73 291 73 310 c 0
 73 329 82 342 82 362 c 0
 82 398 55 420 55 456 c 0
 55 470 74 479 74 500 c 0
 74 538 73 613 73 649 c 0
 73 681 68 717 68 748 c 4
EndSplineSet
Validated: 33
EndChar

StartChar: bracketright
Encoding: 93 93 69
Width: 556
VWidth: 0
Flags: HW
LayerCount: 2
Fore
SplineSet
115 696 m 0
 115 737 177 764 204 764 c 0
 250 764 288 736 327 736 c 0
 364 736 397 774 431 774 c 0
 460 774 484 765 484 728 c 0
 484 697 480 661 480 629 c 0
 480 593 478 517 478 479 c 0
 478 458 498 449 498 435 c 0
 498 399 471 377 471 341 c 0
 471 321 480 309 480 290 c 0
 480 271 498 234 498 219 c 0
 498 142 l 0
 491 129 492 114 492 100 c 1
 449 43 l 0
 440 35 433 18 419 18 c 0
 375 18 280 49 233 49 c 0
 218 49 198 37 182 37 c 0
 167 37 113 43 113 77 c 0
 113 135 190 133 221 133 c 0
 258 133 337 117 375 117 c 0
 403 117 424 136 424 177 c 0
 392 292 l 0
 392 336 400 379 400 424 c 0
 400 525 392 676 292 676 c 0
 271 676 250 663 228 663 c 0
 197 663 171 686 139 686 c 0
 130 686 115 684 115 696 c 0
EndSplineSet
Validated: 33
EndChar

StartChar: asciicircum
Encoding: 94 94 70
Width: 659
VWidth: 0
Flags: HW
LayerCount: 2
Fore
SplineSet
108 639 m 1
 182 690 265 798 308 803 c 0
 353 808 422 637 479 637 c 0
 483 637 510 632 510 641 c 0
 510 701 351 857 310 857 c 0
 246 857 141 776 109 678 c 0
 108 639 l 1
EndSplineSet
Validated: 41
EndChar

StartChar: colon
Encoding: 58 58 71
Width: 354
VWidth: 0
Flags: HW
LayerCount: 2
Fore
SplineSet
264 27 m 1
 255 0 l 0
 246 -8 243 -14 232 -20 c 0
 158 -10 l 0
 152 0 161 12 153 27 c 0
 149 35 145 32 139 43 c 0
 132 56 141 76 155 83 c 0
 163 87 168 88 175 92 c 0
 183 96 188 101 196 105 c 0
 211 113 230 102 232 85 c 0
 234 61 251 77 259 67 c 0
 264 60 273 30 264 27 c 1
239 314 m 1
 259 293 l 0
 262 282 266 275 266 263 c 0
 222 204 l 0
 210 204 203 218 186 218 c 0
 176 218 177 213 165 213 c 0
 150 213 136 231 136 246 c 0
 136 255 137 260 137 268 c 0
 137 276 136 282 136 291 c 0
 136 307 155 320 171 314 c 0
 194 305 187 326 200 328 c 0
 208 329 240 323 239 314 c 1
EndSplineSet
Validated: 33
EndChar

StartChar: semicolon
Encoding: 59 59 72
Width: 354
VWidth: 0
Flags: HW
LayerCount: 2
Fore
SplineSet
264 27 m 1
 255 0 l 0
 194 -45 173 -54 148 -74 c 4
 125 -109 l 4
 105 -77 161 12 153 27 c 0
 149 35 145 32 139 43 c 0
 132 56 141 76 155 83 c 0
 163 87 168 88 175 92 c 0
 183 96 188 101 196 105 c 0
 211 113 230 102 232 85 c 0
 234 61 251 77 259 67 c 0
 264 60 273 30 264 27 c 1
239 314 m 1
 259 293 l 0
 262 282 266 275 266 263 c 0
 222 204 l 0
 210 204 203 218 186 218 c 0
 176 218 177 213 165 213 c 0
 150 213 136 231 136 246 c 0
 136 255 137 260 137 268 c 0
 137 276 136 282 136 291 c 0
 136 307 155 320 171 314 c 0
 194 305 187 326 200 328 c 0
 208 329 240 323 239 314 c 1
EndSplineSet
Validated: 33
EndChar

StartChar: less
Encoding: 60 60 73
Width: 878
VWidth: 0
Flags: HMW
LayerCount: 2
Fore
SplineSet
131 346 m 0
 154 417 191 464 254 496 c 0
 288 513 296 572 346 572 c 0
 415 572 497 598 484 690 c 1
 506 753 587 679 627 711 c 0
 662 739 671 829 749 789 c 0
 822 751 740 697 701 666 c 24
 649 623 564 672 538 617 c 0
 524 584 594 479 485 496 c 1
 448 524 398 484 357 463 c 0
 299 433 222 427 243 332 c 0
 264 236 324 134 431 152 c 0
 533 169 521 5 622 18 c 1
 679 62 789 48 779 -91 c 0
 772 -198 717 -103 670 -102 c 1
 625 -134 573 -90 545 -41 c 0
 496 45 409 86 291 83 c 1
 233 114 243 266 150 240 c 1
 88 173 18 287 103 319 c 0
 115 323 127 333 131 346 c 0
EndSplineSet
Validated: 33
EndChar

StartChar: greater
Encoding: 62 62 74
Width: 799
VWidth: 0
Flags: HW
LayerCount: 2
Fore
SplineSet
50 732 m 4
 57 839 111 744 158 743 c 1
 203 775 256 731 284 682 c 0
 333 596 420 555 538 558 c 1
 596 527 586 375 679 401 c 1
 741 468 811 354 726 322 c 0
 714 318 702 308 698 295 c 0
 675 224 638 177 575 145 c 0
 541 128 533 69 483 69 c 0
 414 69 332 43 345 -49 c 1
 323 -112 242 -38 202 -70 c 0
 167 -98 158 -188 80 -148 c 0
 7 -110 88 -56 127 -25 c 24
 179 18 265 -31 291 24 c 0
 305 57 235 162 344 145 c 1
 381 117 431 157 472 178 c 0
 530 208 607 214 586 309 c 0
 565 405 505 507 398 489 c 0
 296 472 308 636 207 623 c 1
 150 579 40 593 50 732 c 4
EndSplineSet
Validated: 33
EndChar

StartChar: zero
Encoding: 48 48 75
Width: 623
VWidth: 0
Flags: HW
LayerCount: 2
Fore
SplineSet
448 204 m 24
 470 230 493 233 493 279 c 0
 493 320 454 342 454 383 c 0
 454 415 495 425 495 464 c 0
 495 485 460 494 460 522 c 0
 460 540 473 547 473 564 c 0
 473 603 435 624 398 624 c 0
 379 624 378 589 350 589 c 0
 307 589 273 647 232 647 c 0
 205 647 178 636 178 605 c 0
 178 544 268 550 268 485 c 0
 268 466 245 468 227 468 c 0
 188 468 l 0
 139 468 126 391 126 358 c 0
 126 309 186 320 186 283 c 0
 186 245 141 223 141 174 c 0
 141 130 158 89 206 89 c 0
 240 89 228 156 275 156 c 0
 301 156 321 91 374 91 c 0
 388 91 395 103 395 116 c 0
 395 135 382 154 382 172 c 0
 382 187 403 185 413 185 c 0
 421 185 438 192 448 204 c 24
27 457 m 0
 27 537 59 722 219 776 c 0
 292 801 278 743 318 745 c 24
 353 747 363 784 400 784 c 0
 437 784 572 642 572 603 c 0
 572 580 546 558 546 530 c 0
 546 492 594 474 594 433 c 0
 594 403 570 372 570 339 c 0
 570 320 581 300 581 279 c 0
 581 259 564 243 564 222 c 0
 564 204 531 145 531 127 c 0
 531 51 452 52 409 52 c 0
 369 52 318 22 272 22 c 0
 138 22 33 113 33 262 c 0
 33 296 55 318 55 353 c 0
 55 389 27 419 27 457 c 0
EndSplineSet
Validated: 33
EndChar

StartChar: one
Encoding: 49 49 76
Width: 561
VWidth: 0
Flags: HW
LayerCount: 2
Fore
SplineSet
70 551 m 0
 157 715 357 787 421 787 c 0
 421 787 409 759 409 742 c 0
 409 711 434 700 434 670 c 0
 434 627 368 599 368 540 c 0
 368 476 416 434 416 369 c 0
 416 296 349 225 349 144 c 0
 349 107 359 83 385 83 c 0
 416 83 446 88 473 88 c 0
 506 88 538 65 538 30 c 0
 538 19 535 3 521 3 c 0
 488 3 462 25 427 25 c 0
 376 25 328 -2 278 -2 c 0
 230 -2 190 14 142 14 c 0
 128 14 117 39 108 39 c 0
 108 39 120 121 181 121 c 0
 214 121 238 99 273 99 c 0
 301 99 302 112 302 135 c 0
 302 177 288 221 288 265 c 0
 288 289 305 312 305 339 c 0
 305 393 280 446 280 503 c 0
 280 548 302 581 302 623 c 0
 302 634 276 634 271 634 c 0
 265 634 261 623 261 623 c 0
 200 539 l 1
 180 533 168 518 144 512 c 0
 116 512 l 0
 88 512 75 474 40 474 c 0
 18 474 61 533 70 551 c 0
EndSplineSet
Validated: 33
EndChar

StartChar: two
Encoding: 50 50 77
Width: 770
VWidth: 0
Flags: HW
LayerCount: 2
Fore
SplineSet
537 504 m 24
 583 580 488 703 424 703 c 0
 380 703 386 613 331 613 c 0
 311 613 327 660 266 634 c 0
 264 633 266 634 263 632 c 0
 258 575 l 1
 258 575 228 540 185 540 c 0
 165 540 157 551 139 551 c 0
 110 551 97 485 66 485 c 0
 44 485 27 501 27 527 c 0
 27 543 157 696 177 696 c 0
 192 696 214 692 233 692 c 0
 279 692 299 760 339 760 c 0
 358 760 372 749 396 749 c 0
 441 749 479 786 527 786 c 0
 583 786 603 761 603 703 c 0
 603 675 580 650 580 619 c 0
 580 580 625 544 625 496 c 0
 625 391 376 207 293 207 c 0
 271 207 l 0
 240 207 202 164 202 129 c 0
 202 119 225 122 233 122 c 0
 246 122 255 150 271 150 c 0
 306 150 339 120 377 120 c 0
 435 120 478 163 533 163 c 0
 569 163 575 120 606 120 c 0
 621 120 693 214 706 214 c 0
 738 214 744 192 744 161 c 0
 744 148 696 9 676 9 c 0
 630 9 576 58 517 58 c 0
 469 58 422 20 373 20 c 0
 336 20 314 45 275 45 c 0
 239 45 208 16 168 16 c 0
 132 16 56 42 56 95 c 0
 56 163 409 292 537 504 c 24
EndSplineSet
Validated: 33
EndChar

StartChar: three
Encoding: 51 51 78
Width: 667
VWidth: 0
Flags: HW
LayerCount: 2
Fore
SplineSet
413 688 m 0
 422 693 l 0
 431 693 l 0
 457 693 474 652 474 620 c 0
 474 575 470 533 422 533 c 0
 382 533 l 0
 332 533 352 441 315 441 c 0
 291 441 277 473 256 473 c 0
 237 473 216 466 216 433 c 0
 216 405 235 375 256 375 c 0
 265 375 283 379 292 379 c 0
 342 379 344 290 381 290 c 0
 404 290 421 307 443 307 c 0
 461 307 498 291 498 264 c 0
 498 199 365 90 317 90 c 0
 276 90 261 134 230 134 c 0
 204 134 184 109 163 109 c 0
 101 109 127 239 97 239 c 0
 77 239 45 225 45 192 c 0
 45 60 220 -25 315 -25 c 0
 372 -25 628 10 628 126 c 0
 628 316 382 384 382 384 c 0
 382 534 576 492 576 635 c 0
 576 696 551 786 488 786 c 0
 410 786 l 0
 382 786 370 820 341 820 c 0
 259 820 223 731 150 731 c 0
 129 731 117 746 99 746 c 0
 71 746 43 733 43 695 c 0
 43 673 55 637 76 637 c 0
 93 637 102 639 114 639 c 0
 145 639 164 612 195 612 c 0
 222 612 252 661 278 648 c 0
 308 632 383 683 413 688 c 0
EndSplineSet
Validated: 41
EndChar

StartChar: four
Encoding: 52 52 79
Width: 710
VWidth: 0
Flags: HW
LayerCount: 2
Fore
SplineSet
237 684 m 0
 251 695 324 814 334 812 c 0
 356 808 357 797 379 797 c 0
 415 797 428 827 462 827 c 0
 489 827 536 823 536 792 c 0
 536 720 122 565 122 395 c 0
 122 354 159 339 198 339 c 0
 234 339 265 369 295 369 c 0
 337 369 358 333 394 333 c 0
 407 333 418 359 418 372 c 0
 418 393 410 414 410 434 c 0
 410 451 412 486 441 486 c 0
 487 486 509 443 509 400 c 0
 509 372 466 358 466 337 c 0
 466 330 460 315 476 315 c 0
 548 315 572 404 620 404 c 0
 683 404 702 376 702 318 c 0
 702 260 687 238 624 238 c 0
 577 238 533 268 492 268 c 0
 466 268 457 243 457 222 c 0
 457 138 589 123 589 50 c 0
 589 43 585 -2 571 -2 c 0
 501 -2 l 0
 481 -2 478 -10 455 -10 c 0
 442 -10 387 -13 387 11 c 0
 387 22 385 33 385 44 c 0
 385 79 398 119 398 156 c 0
 398 182 406 206 406 227 c 0
 406 265 395 281 353 281 c 0
 325 281 304 264 281 264 c 0
 251 264 238 285 208 285 c 0
 161 285 125 261 83 261 c 0
 58 261 21 267 21 298 c 0
 21 494 107 576 237 684 c 0
EndSplineSet
Validated: 33
EndChar

StartChar: five
Encoding: 53 53 80
Width: 812
VWidth: 0
Flags: HW
LayerCount: 2
Fore
SplineSet
171 602 m 0
 173 601 172 603 172 604 c 0
 172 609 168 612 168 618 c 0
 168 628 183 631 183 641 c 0
 183 668 139 691 139 722 c 0
 139 734 166 735 173 735 c 0
 182 735 190 734 199 734 c 0
 228 734 249 779 292 779 c 0
 337 779 377 754 423 754 c 0
 472 754 510 797 561 797 c 0
 594 797 618 771 652 771 c 0
 683 771 712 790 744 790 c 0
 767 790 794 765 794 742 c 0
 794 720 750 717 734 717 c 0
 715 717 698 726 678 726 c 0
 639 726 611 693 567 693 c 0
 542 693 520 706 495 706 c 0
 475 706 457 690 436 690 c 0
 418 690 399 692 381 692 c 0
 316 692 270 664 270 597 c 0
 270 536 324 527 324 488 c 0
 324 456 l 0
 324 438 335 387 356 387 c 0
 411 387 462 436 517 436 c 0
 529 436 534 423 545 423 c 0
 576 423 603 440 635 440 c 0
 743 440 702 199 702 119 c 0
 702 75 582 18 544 18 c 0
 509 18 412 36 377 36 c 0
 339 36 308 56 267 56 c 0
 225 56 182 48 140 48 c 0
 54 48 17 108 17 194 c 0
 17 206 21 212 32 212 c 0
 103 212 242 73 356 73 c 0
 452 73 581 93 581 195 c 0
 581 241 614 374 569 374 c 0
 517 374 480 331 429 331 c 0
 399 331 378 360 348 360 c 0
 333 360 318 358 303 357 c 0
 172 351 229 542 171 602 c 0
EndSplineSet
Validated: 33
EndChar

StartChar: six
Encoding: 54 54 81
Width: 688
VWidth: 0
Flags: HW
LayerCount: 2
Fore
SplineSet
273 108 m 24
 291 95 291 79 322 79 c 0
 338 79 332 112 350 112 c 0
 361 112 366 100 377 100 c 0
 382 100 393 98 398 98 c 0
 408 98 465 103 465 117 c 0
 465 126 l 0
 471 139 475 142 493 140 c 0
 526 137 591 256 591 298 c 0
 590 321 573 340 549 336 c 0
 517 330 546 416 481 416 c 0
 442 416 379 296 346 296 c 0
 327 296 315 304 295 304 c 0
 275 304 290 260 270 260 c 0
 250 260 223 268 202 268 c 0
 174 268 156 216 156 189 c 0
 156 149 189 146 221 146 c 0
 237 146 257 148 257 126 c 0
 257 122 266 114 273 108 c 24
582 786 m 24
 515 724 366 784 366 702 c 0
 366 686 371 675 371 660 c 0
 371 655 373 648 368 648 c 0
 353 648 319 650 305 666 c 0
 293 680 271 661 273 643 c 0
 273 622 294 622 294 604 c 0
 294 544 189 509 189 430 c 0
 189 395 210 340 251 340 c 0
 330 340 235 422 385 489 c 0
 489 535 685 501 664 262 c 0
 661 229 626 144 598 113 c 1
 571 83 503 24 460 55 c 1
 420 32 363 11 336 -7 c 0
 260 -56 194 32 130 87 c 1
 81 130 61 233 61 287 c 0
 61 342 l 0
 61 371 44 395 44 424 c 0
 44 600 324 816 490 816 c 0
 497 816 610 811 582 786 c 24
EndSplineSet
Validated: 33
EndChar

StartChar: question
Encoding: 63 63 82
Width: 681
VWidth: 0
Flags: HW
LayerCount: 2
Fore
SplineSet
468 -23 m 0
 468 -27 l 0
 468 -34 451 -31 445 -31 c 0
 396 -31 411 -82 368 -82 c 0
 312 -82 234 -45 234 12 c 0
 234 26 241 31 253 31 c 0
 264 31 289 25 306 25 c 0
 327 25 363 55 394 55 c 0
 428 55 454 -11 468 -23 c 0
272 590 m 24
 271 586 281 578 281 575 c 0
 284 547 226 563 241 522 c 0
 254 487 221 483 200 483 c 0
 184 483 171 493 157 493 c 0
 140 493 124 485 110 485 c 0
 84 485 75 520 75 542 c 0
 75 575 78 627 99 647 c 0
 182 727 167 730 270 730 c 0
 341 730 375 824 449 824 c 0
 482 824 558 807 558 760 c 0
 558 738 551 719 551 697 c 0
 551 628 649 610 649 516 c 0
 649 504 472 353 452 353 c 0
 429 353 408 365 391 365 c 0
 348 365 328 328 328 287 c 0
 328 231 400 231 400 189 c 0
 400 174 366 166 366 147 c 0
 366 136 389 123 389 102 c 0
 392 88 373 96 364 94 c 0
 354 92 331 88 322 88 c 0
 268 88 238 128 238 186 c 0
 238 221 261 252 261 289 c 0
 261 376 l 0
 261 406 295 438 321 438 c 0
 339 438 353 425 373 425 c 0
 454 425 396 522 479 522 c 0
 527 522 530 536 530 594 c 0
 530 678 504 760 420 760 c 0
 366 760 394 676 351 676 c 0
 295 676 l 0
 261 676 277 626 272 590 c 24
EndSplineSet
Validated: 33
EndChar

StartChar: at
Encoding: 64 64 83
Width: 630
VWidth: 0
Flags: HW
LayerCount: 2
Fore
SplineSet
325 246 m 24
 334 246 341 231 342 231 c 0
 363 231 379 291 379 308 c 0
 379 320 368 340 368 345 c 0
 368 354 l 0
 368 373 311 391 300 391 c 0
 293 391 275 389 275 379 c 0
 275 369 288 367 288 356 c 0
 288 346 249 346 249 328 c 0
 249 307 275 299 275 281 c 0
 275 266 253 264 253 252 c 0
 253 228 277 219 296 219 c 0
 304 219 310 225 314 230 c 0
 314 230 318 246 325 246 c 24
426 268 m 24
 428 258 438 254 438 244 c 0
 438 240 435 231 430 225 c 24
 421 215 413 211 401 205 c 24
 384 196 382 187 354 187 c 0
 340 187 317 184 289 188 c 0
 275 190 253 194 239 210 c 24
 221 232 213 258 213 276 c 0
 213 298 238 281 238 299 c 0
 238 319 208 350 231 380 c 0
 242 395 298 430 315 430 c 0
 370 430 376 373 418 373 c 0
 436 373 442 406 442 420 c 0
 442 458 395 520 348 520 c 0
 319 520 l 0
 298 520 271 526 252 526 c 0
 172 526 137 469 137 408 c 0
 137 366 100 340 100 293 c 0
 100 123 228 76 375 76 c 0
 401 76 496 69 496 119 c 0
 496 139 498 160 498 180 c 0
 498 197 508 209 508 227 c 0
 508 243 494 257 494 276 c 0
 494 313 499 336 541 336 c 0
 579 336 575 323 575 289 c 0
 575 252 547 224 547 184 c 0
 547 153 584 142 584 109 c 0
 584 42 388 31 336 31 c 0
 278 31 53 43 53 139 c 0
 53 157 63 174 63 193 c 0
 63 251 43 309 43 369 c 0
 43 433 150 592 219 592 c 0
 242 592 258 567 289 567 c 0
 325 567 349 588 391 588 c 0
 415 588 463 558 463 532 c 0
 463 517 451 512 451 496 c 0
 451 473 492 468 492 436 c 0
 492 358 404 348 402 339 c 0
 397 318 422 328 429 316 c 24
 434 306 432 299 431 288 c 24
 431 280 425 276 426 268 c 24
EndSplineSet
Validated: 33
EndChar

StartChar: asciitilde
Encoding: 126 126 84
Width: 794
VWidth: 0
Flags: HW
LayerCount: 2
Fore
SplineSet
86 218 m 0
 134 212 116 249 116 267 c 0
 116 279 137 317 137 329 c 0
 137 358 208 391 242 391 c 0
 277 391 424 216 424 203 c 0
 424 196 421 189 421 183 c 0
 421 156 454 145 487 145 c 0
 504 145 533 148 549 148 c 0
 643 148 768 272 768 335 c 0
 768 363 713 379 683 379 c 0
 675 379 672 358 672 354 c 0
 672 336 705 328 705 311 c 0
 705 301 672 297 672 283 c 0
 672 270 614 250 614 238 c 0
 614 229 519 188 498 188 c 0
 460 188 447 242 447 262 c 0
 447 280 376 288 376 318 c 0
 376 329 375 341 375 352 c 0
 375 372 299 430 270 430 c 0
 222 430 142 455 94 402 c 0
 86 393 61 367 61 356 c 0
 61 339 21 281 21 262 c 0
 21 248 33 238 33 225 c 0
 86 218 l 0
EndSplineSet
Validated: 41
EndChar

StartChar: equal
Encoding: 61 61 85
Width: 606
VWidth: 0
Flags: HW
LayerCount: 2
Fore
SplineSet
228 75 m 1
 214 75 218 75 204 75 c 0
 191 75 174 85 162 85 c 0
 144 85 140 77 122 77 c 0
 104 77 62 99 62 124 c 0
 62 155 87 170 110 170 c 0
 145 170 175 151 210 151 c 0
 232 151 257 158 282 158 c 0
 305 158 329 140 352 140 c 0
 378 140 407 158 430 158 c 0
 451 158 457 152 479 152 c 0
 500 152 540 174 572 174 c 0
 586 174 588 134 588 122 c 0
 588 108 585 87 571 87 c 0
 549 87 519 94 497 94 c 0
 451 94 413 66 366 66 c 0
 344 66 310 85 289 92 c 0
 228 75 l 1
70 338 m 1
 88 387 118 377 147 377 c 0
 198 377 244 340 300 340 c 0
 367 340 426 382 493 382 c 0
 536 382 581 368 581 311 c 0
 581 269 531 271 509 271 c 0
 478 271 440 290 408 290 c 0
 367 290 327 264 288 264 c 0
 218 264 144 291 79 303 c 0
 70 338 l 1
EndSplineSet
Validated: 33
EndChar

StartChar: seven
Encoding: 55 55 86
Width: 774
VWidth: 0
Flags: HW
LayerCount: 2
Fore
SplineSet
476 698 m 28
 466 699 465 715 456 715 c 4
 427 715 424 680 392 680 c 4
 362 680 345 700 318 700 c 4
 287 700 269 664 232 664 c 4
 191 664 141 690 97 690 c 4
 68 690 40 717 40 745 c 4
 40 771 74 766 87 766 c 4
 126 766 167 731 210 731 c 4
 246 731 278 766 327 766 c 4
 349 766 375 754 398 754 c 4
 434 754 459 805 497 805 c 4
 534 805 543 776 585 776 c 4
 602 776 631 788 654 788 c 4
 707 788 710 749 710 705 c 4
 710 650 626 623 626 551 c 4
 626 542 628 532 628 522 c 4
 628 493 583 487 583 465 c 4
 583 451 l 4
 583 440 581 434 581 424 c 4
 581 420 582 422 587 422 c 4
 614 422 653 438 683 438 c 4
 704 438 746 410 746 387 c 4
 746 373 666 354 658 354 c 4
 626 354 603 383 572 383 c 4
 509 383 498 -35 239 -35 c 4
 216 -35 202 -22 202 4 c 4
 202 65 486 237 486 365 c 4
 486 386 454 385 439 385 c 4
 414 385 390 371 364 371 c 4
 323 371 312 398 312 432 c 4
 312 456 329 451 345 451 c 4
 379 451 398 430 425 430 c 4
 446 430 462 473 493 473 c 4
 509 473 l 4
 556 473 527 560 527 584 c 4
 527 635 574 655 574 700 c 4
 574 712 541 709 531 709 c 4
 516 709 498 696 476 698 c 28
EndSplineSet
Validated: 33
EndChar

StartChar: eight
Encoding: 56 56 87
Width: 635
VWidth: 0
Flags: HW
LayerCount: 2
Fore
SplineSet
340 375 m 24
 320 389 322 395 292 395 c 0
 278 395 279 371 264 371 c 0
 251 371 200 306 183 306 c 0
 153 306 151 263 151 238 c 0
 151 214 185 207 185 183 c 0
 185 171 181 159 181 146 c 0
 181 106 242 131 276 131 c 0
 296 131 315 137 329 137 c 0
 355 137 366 115 398 115 c 0
 437 115 496 166 496 211 c 0
 496 227 489 240 470 240 c 0
 447 240 465 296 439 293 c 0
 393 287 378 349 340 375 c 24
328 540 m 0
 339 540 346 529 353 529 c 0
 390 529 424 586 424 620 c 0
 424 667 381 703 334 703 c 0
 293 703 191 665 223 631 c 0
 335 515 182 538 328 540 c 0
513 424 m 0
 597 414 592 284 592 269 c 0
 592 243 566 225 566 198 c 0
 566 168 580 144 580 114 c 0
 580 46 506 64 461 64 c 0
 434 64 390 7 341 7 c 0
 277 7 215 0 187 0 c 0
 117 25 l 0
 72 25 59 148 59 184 c 0
 59 191 97 193 97 218 c 0
 97 259 63 303 63 349 c 0
 63 386 87 397 122 397 c 0
 147 392 l 0
 176 392 182 434 207 434 c 0
 214 434 238 432 245 432 c 0
 251 432 249 449 249 450 c 0
 249 460 235 481 221 481 c 0
 206 481 188 476 170 476 c 0
 116 476 140 512 140 562 c 0
 140 569 159 580 159 594 c 0
 159 630 115 649 118 687 c 0
 123 742 163 819 290 817 c 0
 323 816 344 831 373 831 c 0
 407 831 535 722 535 680 c 0
 535 665 516 662 516 646 c 0
 516 613 543 591 543 556 c 0
 543 542 523 478 506 478 c 0
 485 478 475 479 464 479 c 0
 453 479 445 476 441 468 c 24
 438 463 451 453 448 448 c 0
 443 440 424 443 428 435 c 0
 439 414 513 424 513 424 c 0
EndSplineSet
Validated: 33
EndChar

StartChar: nine
Encoding: 57 57 88
Width: 688
VWidth: 0
Flags: HW
LayerCount: 2
Fore
SplineSet
398 467 m 28
 404 471 410 463 417 463 c 0
 439 463 499 518 499 543 c 0
 499 594 438 684 386 684 c 0
 368 684 367 674 353 674 c 0
 318 674 304 711 275 711 c 0
 202 711 173 621 173 565 c 0
 173 489 248 325 308 397 c 0
 328 421 360 444 398 467 c 28
437 793 m 1
 456 803 l 0
 477 817 497 776 536 776 c 0
 592 776 622 609 622 567 c 0
 622 511 562 505 562 469 c 0
 562 439 595 381 595 346 c 0
 595 314 585 282 585 250 c 0
 585 211 595 174 595 135 c 0
 595 94 477 8 437 8 c 0
 410 8 384 35 361 35 c 0
 311 35 285 -12 247 -12 c 0
 210 -12 75 104 75 135 c 0
 75 149 79 195 97 195 c 0
 182 195 249 104 337 104 c 0
 379 104 495 121 495 190 c 0
 495 209 486 223 486 242 c 0
 486 272 501 331 501 365 c 0
 501 388 493 387 470 387 c 0
 425 387 432 330 394 330 c 0
 372 330 357 340 335 340 c 0
 327 340 317 317 306 317 c 0
 240 317 108 304 108 401 c 0
 108 451 75 483 75 496 c 0
 75 510 67 530 67 547 c 0
 67 572 85 610 85 635 c 0
 85 647 120 715 120 715 c 0
 120 715 164 766 214 766 c 0
 273 766 280 815 310 815 c 0
 334 815 342 797 355 797 c 0
 379 797 388 813 409 813 c 0
 425 813 428 793 433 793 c 0
 437 793 l 1
EndSplineSet
Validated: 33
EndChar

StartChar: underscore
Encoding: 95 95 90
Width: 645
VWidth: 0
Flags: HW
LayerCount: 2
Fore
SplineSet
170 -44 m 4
 163 -44 l 4
 130 -44 91 -24 91 14 c 4
 91 20 92 18 100 18 c 4
 119 18 127 16 150 16 c 4
 177 16 200 50 234 50 c 4
 270 50 292 31 324 31 c 4
 358 31 377 54 416 54 c 4
 428 54 445 41 466 41 c 4
 484 41 505 54 526 54 c 4
 541 54 585 43 585 27 c 4
 585 -3 570 -32 540 -32 c 4
 502 -32 471 -13 434 -13 c 4
 400 -13 369 -34 328 -36 c 4
 305 -37 196 -30 170 -44 c 4
EndSplineSet
Validated: 33
EndChar

StartChar: grave
Encoding: 96 96 91
Width: 661
VWidth: 0
Flags: HW
LayerCount: 2
Fore
SplineSet
308 729 m 24
 298 735 292 737 278 736 c 0
 256 736 l 0
 230 736 242 760 242 769 c 0
 242 785 194 774 194 807 c 0
 194 817 211 832 223 832 c 0
 236 832 250 822 259 808 c 0
 270 792 309 792 313 772 c 0
 317 751 358 746 385 710 c 0
 403 686 359 704 353 704 c 0
 349 704 326 710 320 711 c 0
 320 711 316 724 308 729 c 24
EndSplineSet
Validated: 33
EndChar

StartChar: braceleft
Encoding: 123 123 92
Width: 479
VWidth: 0
Flags: HW
LayerCount: 2
Fore
SplineSet
207 791 m 0
 236 794 310 812 340 816 c 0
 349 817 373 814 374 803 c 0
 378 764 220 729 226 673 c 0
 230 636 l 0
 231 625 191 551 192 542 c 0
 195 511 214 485 217 456 c 0
 219 436 214 413 191 410 c 0
 180 409 155 408 146 407 c 0
 141 406 139 405 140 399 c 0
 145 351 197 332 203 275 c 0
 207 240 190 214 194 181 c 0
 197 153 236 141 239 111 c 0
 240 98 220 45 221 33 c 0
 224 2 247 -16 277 -13 c 0
 320 -8 l 0
 331 -7 332 -7 333 -16 c 0
 337 -49 334 -61 304 -65 c 0
 202 -77 135 22 122 139 c 0
 117 187 166 202 161 247 c 0
 159 264 142 276 141 289 c 0
 140 300 142 309 141 319 c 0
 138 343 124 364 99 351 c 0
 94 348 84 354 81 355 c 0
 47 351 63 298 31 294 c 0
 22 293 20 293 20 293 c 0
 5 433 172 394 162 484 c 0
 159 509 159 535 156 559 c 0
 154 574 167 655 165 670 c 0
 163 693 170 714 168 731 c 0
 165 763 166 787 201 791 c 0
 207 791 l 0
EndSplineSet
Validated: 33
EndChar

StartChar: braceright
Encoding: 125 125 93
Width: 444
VWidth: 0
Flags: HW
LayerCount: 2
Fore
SplineSet
206 768 m 4
 211 767 l 4
 246 763 248 740 245 708 c 4
 243 691 250 669 248 646 c 4
 246 631 258 550 256 535 c 4
 253 511 254 485 251 460 c 4
 241 370 407 409 392 269 c 4
 392 269 390 269 381 270 c 4
 349 274 366 327 332 331 c 4
 329 330 318 324 313 327 c 4
 288 340 274 319 271 295 c 4
 270 285 272 276 271 265 c 4
 270 252 253 240 251 223 c 4
 246 178 296 164 291 116 c 4
 278 -1 210 -100 108 -88 c 4
 78 -84 75 -73 79 -40 c 4
 80 -31 81 -30 92 -31 c 4
 136 -36 l 4
 166 -39 189 -22 192 9 c 4
 193 21 172 75 173 88 c 4
 176 118 215 129 218 157 c 4
 222 190 205 217 209 252 c 4
 215 309 267 327 272 375 c 4
 273 381 271 383 266 384 c 4
 257 385 232 385 221 386 c 4
 198 389 194 412 196 432 c 4
 199 461 217 488 220 519 c 4
 221 528 181 601 182 612 c 4
 186 649 l 4
 192 705 34 741 38 780 c 4
 39 791 63 793 72 792 c 4
 102 788 177 771 206 768 c 4
EndSplineSet
Validated: 33
EndChar

StartChar: bar
Encoding: 124 124 94
Width: 466
VWidth: 0
Flags: HW
LayerCount: 2
Fore
SplineSet
196 762 m 24
 249 739 275 653 271 635 c 0
 264 597 226 572 226 539 c 0
 226 496 278 471 278 440 c 0
 278 404 257 380 257 344 c 0
 257 306 284 276 284 238 c 0
 284 203 251 169 251 141 c 0
 251 84 292 37 292 -16 c 0
 292 -53 279 -98 230 -98 c 0
 211 -98 146 38 146 59 c 0
 146 148 218 243 218 326 c 0
 218 376 161 400 161 449 c 0
 161 491 204 515 204 555 c 0
 204 594 153 634 153 684 c 0
 153 716 164 775 196 762 c 24
EndSplineSet
Validated: 33
EndChar
